<?xml version="1.0" standalone="no"?>
<!DOCTYPE svg PUBLIC "-//W3C//DTD SVG 1.1//EN" "http://www.w3.org/Graphics/SVG/1.1/DTD/svg11.dtd" >
<svg xmlns="http://www.w3.org/2000/svg" xmlns:xlink="http://www.w3.org/1999/xlink" version="1.1">
<metadata>
Created by FontForge 20170731 at Sat Oct 29 02:14:37 2016
 By Aleksey,,,
Copyright (C) 2001, 2010 Hoefler &#38; Co. http://www.typography.com
</metadata>
<defs>
<font id="GothamSSm-Black" horiz-adv-x="528" >
  <font-face 
    font-family="Gotham SSm Black"
    font-weight="450"
    font-stretch="normal"
    units-per-em="1000"
    panose-1="0 0 0 0 0 0 0 0 0 0"
    ascent="800"
    descent="-200"
    x-height="562"
    cap-height="728"
    bbox="-50 -316 1148 1034"
    underline-thickness="50"
    underline-position="-200"
    unicode-range="U+0020-2122"
  />
<missing-glyph horiz-adv-x="500" 
d="M0 800h500v-1000h-500v1000zM250 360l179 390h-358zM222 300l-172 376v-752zM278 300l172 -376v752zM71 -150h358l-179 390z" />
    <glyph glyph-name=".notdef" horiz-adv-x="500" 
d="M0 800h500v-1000h-500v1000zM250 360l179 390h-358zM222 300l-172 376v-752zM278 300l172 -376v752zM71 -150h358l-179 390z" />
    <glyph glyph-name=".null" horiz-adv-x="0" 
 />
    <glyph glyph-name="nonmarkingreturn" horiz-adv-x="301" 
 />
    <glyph glyph-name="space" unicode=" " horiz-adv-x="301" 
 />
    <glyph glyph-name="exclam" unicode="!" horiz-adv-x="345" 
d="M64 653v75h217v-75l-59 -414h-99zM74 175h197v-175h-197v175z" />
    <glyph glyph-name="quotedbl" unicode="&#x22;" horiz-adv-x="563" 
d="M329 728h204v-5l-128 -360h-98zM67 728h204v-5l-128 -360h-99z" />
    <glyph glyph-name="numbersign" unicode="#" horiz-adv-x="741" 
d="M670 144h-123l-24 -144h-148l24 144h-135l-25 -144h-147l24 144h-80v160h108l21 124h-94v161h121l24 139h148l-24 -139h136l24 139h148l-24 -139h81v-161h-109l-21 -124h95v-160zM285 298h146l23 136h-145z" />
    <glyph glyph-name="dollar" unicode="$" horiz-adv-x="696" 
d="M550 510q-32 22 -67.5 38t-70.5 24v-129q61 -15 107 -34t76.5 -46t45.5 -62.5t15 -82.5v-3q0 -47 -17.5 -84t-49 -64t-75.5 -44t-98 -22v-103h-108v104q-75 8 -146 34t-128 68l91 134q48 -34 94 -55.5t94 -29.5v134q-61 15 -107 33.5t-77 44.5t-46.5 62t-15.5 84v2
q0 91 63.5 149t178.5 66v60h109v-62q62 -8 114.5 -28.5t98.5 -51.5zM482 205q0 23 -14.5 37t-56.5 26v-121q71 7 71 56v2zM243 525q0 -21 14.5 -36t56.5 -27v120q-38 -3 -54.5 -18t-16.5 -37v-2z" />
    <glyph glyph-name="percent" unicode="%" horiz-adv-x="934" 
d="M227 350q-41 0 -75 15t-58.5 41.5t-38 61.5t-13.5 74v2q0 40 13.5 75.5t38 61.5t59 41.5t76.5 15.5t76 -15t58 -41.5t37.5 -61.5t13.5 -74v-2q0 -40 -13.5 -75t-38.5 -61.5t-59 -42t-76 -15.5zM227 628q-29 0 -45 -23.5t-16 -58.5v-2q0 -35 18 -59.5t45 -24.5
q28 0 44.5 23.5t16.5 58.5v2q0 35 -17.5 59.5t-45.5 24.5zM676 728h137l-305 -395l-250 -333h-137l303 392zM706 -10q-42 0 -76 15t-58 41.5t-37.5 61.5t-13.5 74v2q0 40 13.5 75.5t37.5 61.5t58.5 41.5t76.5 15.5t76 -15t58.5 -41.5t37.5 -61.5t13 -74v-2q0 -40 -13.5 -75
t-38 -61.5t-58.5 -42t-76 -15.5zM707 100q28 0 45 23.5t17 58.5v2q0 35 -18 59.5t-45 24.5q-29 0 -45.5 -23.5t-16.5 -58.5v-2q0 -35 18 -59.5t45 -24.5z" />
    <glyph glyph-name="ampersand" unicode="&#x26;" horiz-adv-x="734" 
d="M501 63q-46 -35 -99.5 -55t-116.5 -20q-55 0 -101.5 14.5t-81 41.5t-54 66t-19.5 88v3q0 136 146 202q-26 36 -37 70.5t-11 70.5v2q0 39 15.5 74.5t44.5 62.5t71 43t95 16q49 0 88.5 -14.5t67.5 -39.5t43 -59t15 -73v-2q0 -69 -39.5 -115t-104.5 -74l84 -84q18 26 35 56
t34 62l130 -67q-22 -40 -46 -79t-50 -74l100 -99l-132 -95zM331 453q41 17 61 39t20 52v2q0 28 -16.5 44.5t-42.5 16.5q-27 0 -44 -18.5t-17 -48.5v-2q0 -22 9.5 -41.5t29.5 -43.5zM311 133q23 0 45.5 9t44.5 24l-124 126q-29 -17 -42 -38t-13 -44v-2q0 -34 25 -54.5
t64 -20.5z" />
    <glyph glyph-name="quotesingle" unicode="'" horiz-adv-x="304" 
d="M67 728h207v-5l-128 -360h-102z" />
    <glyph glyph-name="parenleft" unicode="(" horiz-adv-x="471" 
d="M353 -147q-72 39 -128 84t-94.5 99t-58 119t-19.5 143v1q0 78 19.5 142.5t58 119t94.5 100t128 83.5l80 -119q-51 -35 -87.5 -71t-60 -75.5t-35 -84t-11.5 -96.5v-1q0 -102 46.5 -178.5t147.5 -146.5z" />
    <glyph glyph-name="parenright" unicode=")" horiz-adv-x="471" 
d="M38 -28q51 35 87.5 71t60 75.5t35 83.5t11.5 96v1q0 51 -11.5 95.5t-35 84t-60 75.5t-87.5 71l79 119q73 -39 129 -84t94 -99.5t58 -119.5t20 -143v-1q0 -77 -20 -142t-58 -119t-94 -99.5t-129 -83.5z" />
    <glyph glyph-name="asterisk" unicode="*" horiz-adv-x="451" 
d="M197 494l-105 -88l-54 92l129 47l-129 47l54 92l105 -89l-24 135h105l-24 -135l105 89l54 -92l-129 -47l129 -47l-54 -92l-105 88l24 -135h-105z" />
    <glyph glyph-name="plus" unicode="+" horiz-adv-x="674" 
d="M250 282h-184v168h184v183h174v-183h184v-168h-184v-183h-174v183z" />
    <glyph glyph-name="comma" unicode="," horiz-adv-x="304" 
d="M26 -97q53 6 79.5 31t24.5 68h-77v195h198v-160q0 -57 -14.5 -96t-42 -63.5t-66 -36t-86.5 -12.5z" />
    <glyph glyph-name="hyphen" unicode="-" horiz-adv-x="432" 
d="M48 409h337v-169h-337v169z" />
    <glyph glyph-name="period" unicode="." horiz-adv-x="304" 
d="M53 196h198v-196h-198v196z" />
    <glyph glyph-name="slash" unicode="/" horiz-adv-x="563" 
d="M427 830h155l-460 -963h-155z" />
    <glyph glyph-name="zero" unicode="0" horiz-adv-x="767" 
d="M383 -14q-77 0 -138.5 29.5t-105 80.5t-67 119.5t-23.5 146.5v2q0 78 23.5 146.5t67.5 120t106 81.5t139 30q76 0 137.5 -29.5t105 -80.5t67 -119.5t23.5 -146.5v-2q0 -78 -23.5 -146.5t-67.5 -120t-106 -81.5t-138 -30zM385 157q31 0 56.5 15.5t43.5 42.5t28 64.5
t10 82.5v2q0 45 -10 82.5t-28.5 65.5t-44.5 43.5t-57 15.5q-32 0 -57.5 -15t-43.5 -42.5t-28 -65t-10 -82.5v-2q0 -45 10 -83t28.5 -65.5t44.5 -43t58 -15.5z" />
    <glyph glyph-name="one" unicode="1" horiz-adv-x="447" 
d="M177 551l-124 -30l-37 151l212 61h139v-733h-190v551z" />
    <glyph glyph-name="two" unicode="2" horiz-adv-x="657" 
d="M42 147l266 206q54 43 77.5 73.5t23.5 66.5q0 37 -23.5 57.5t-61.5 20.5t-70.5 -22.5t-75.5 -72.5l-131 109q29 37 58.5 66t64 49t75.5 30t93 10q59 0 107.5 -16.5t83.5 -47t54.5 -73t19.5 -93.5v-2q0 -44 -11.5 -79t-33 -65t-54 -58t-74.5 -59l-124 -88h304v-159h-568
v147z" />
    <glyph glyph-name="three" unicode="3" horiz-adv-x="654" 
d="M332 -14q-105 0 -179 35t-126 93l124 123q38 -41 80.5 -62.5t93.5 -21.5q44 0 69.5 20.5t25.5 55.5v2q0 38 -32 58.5t-92 20.5h-81l-28 104l169 156h-280v158h519v-139l-176 -155q39 -8 73 -23.5t60 -40t41 -59t15 -82.5v-2q0 -54 -20.5 -98.5t-57 -76t-87.5 -49
t-111 -17.5z" />
    <glyph glyph-name="four" unicode="4" horiz-adv-x="725" 
d="M407 145h-354l-31 136l382 452h189v-442h93v-146h-93v-145h-186v145zM407 290v213l-178 -213h178z" />
    <glyph glyph-name="five" unicode="5" horiz-adv-x="663" 
d="M320 -14q-96 0 -165 30.5t-126 83.5l112 131q44 -38 86.5 -58.5t89.5 -20.5q51 0 80.5 23.5t29.5 65.5v2q0 41 -31 64t-81 23q-34 0 -62.5 -10t-54.5 -25l-115 66l21 367h479v-161h-324l-7 -114q25 11 51 17.5t62 6.5q50 0 95 -14t79.5 -42.5t55 -72t20.5 -103.5v-2
q0 -60 -21.5 -107.5t-60.5 -81t-93.5 -51t-119.5 -17.5z" />
    <glyph glyph-name="six" unicode="6" horiz-adv-x="696" 
d="M358 -14q-76 0 -128.5 21.5t-91.5 60.5q-41 41 -65 105t-24 168v2q0 85 20.5 158t62 126.5t104.5 84t148 30.5q75 0 131 -20.5t108 -59.5l-93 -138q-34 26 -67 40.5t-78 14.5q-40 0 -66 -16.5t-42 -40.5t-23 -52t-9 -50h1q33 27 70.5 41t85.5 14q49 0 93 -15t77.5 -43.5
t53 -71t19.5 -97.5v-3q0 -60 -22.5 -107.5t-61.5 -81.5t-91 -52t-112 -18zM350 139q51 0 78.5 27t27.5 69v2q0 42 -28.5 69t-79.5 27q-50 0 -78 -26.5t-28 -68.5v-2q0 -41 29 -69t79 -28z" />
    <glyph glyph-name="seven" unicode="7" horiz-adv-x="648" 
d="M394 565h-338v163h554v-146l-323 -582h-214z" />
    <glyph glyph-name="eight" unicode="8" horiz-adv-x="663" 
d="M332 -12q-65 0 -119 15.5t-93.5 43.5t-61.5 67t-22 86v2q0 67 32 108.5t91 67.5q-42 23 -70 60.5t-28 97.5v2q0 43 19.5 80t55 64t85.5 42.5t111 15.5q60 0 110 -15.5t85.5 -42.5t55 -64t19.5 -80v-2q0 -60 -28 -97.5t-70 -60.5q56 -27 89.5 -67t33.5 -106v-2
q0 -50 -22 -89.5t-61 -67.5t-93.5 -43t-118.5 -15zM332 432q42 0 67 23.5t25 58.5v2q0 31 -24.5 54.5t-67.5 23.5q-44 0 -68.5 -23t-24.5 -55v-2q0 -35 25.5 -58.5t67.5 -23.5zM332 135q52 0 80.5 25t28.5 58v2q0 38 -30.5 60t-78.5 22t-79 -22t-31 -60v-2q0 -33 28.5 -58
t81.5 -25z" />
    <glyph glyph-name="nine" unicode="9" horiz-adv-x="696" 
d="M312 149q40 0 66 16t42 39t23 50t9 49h-1q-32 -29 -70.5 -43t-81.5 -14q-54 0 -99.5 16t-78.5 46t-51.5 72.5t-18.5 96.5v2q0 59 21.5 107.5t60 83t91.5 53.5t115 19q78 0 129 -21t92 -62q39 -40 63 -104.5t24 -166.5v-2q0 -89 -21.5 -163t-64 -126.5t-104.5 -81.5
t-143 -29t-141 23.5t-110 62.5l93 136q38 -30 75 -44.5t81 -14.5zM348 388q51 0 79 28t28 70v2q0 44 -29 72.5t-80 28.5t-78.5 -28t-27.5 -72v-2q0 -44 29 -71.5t79 -27.5z" />
    <glyph glyph-name="colon" unicode=":" horiz-adv-x="314" 
d="M58 562h198v-196h-198v196zM58 196h198v-196h-198v196z" />
    <glyph glyph-name="semicolon" unicode=";" horiz-adv-x="314" 
d="M58 562h198v-196h-198v196zM31 -99q53 6 79.5 31t24.5 68h-77v196h198v-161q0 -56 -14.5 -95t-42 -63.5t-66 -36.5t-86.5 -13z" />
    <glyph glyph-name="less" unicode="&#x3c;" horiz-adv-x="674" 
d="M71 278v175l514 209v-176l-343 -120l343 -120v-177z" />
    <glyph glyph-name="equal" unicode="=" horiz-adv-x="674" 
d="M72 587h530v-166h-530v166zM72 311h530v-166h-530v166z" />
    <glyph glyph-name="greater" unicode="&#x3e;" horiz-adv-x="674" 
d="M89 245l342 120l-342 120v177l514 -209v-175l-514 -209v176z" />
    <glyph glyph-name="question" unicode="?" horiz-adv-x="571" 
d="M178 412l8 8q92 7 129.5 29t37.5 57v2q0 28 -21.5 44t-60.5 16q-38 0 -76.5 -18t-75.5 -51l-103 130q48 48 113 79t154 31q57 0 104.5 -15t81.5 -43t53 -68.5t19 -91.5v-2q0 -49 -15.5 -84.5t-43 -61t-64.5 -42t-80 -26.5l-12 -66h-122zM163 175h198v-175h-198v175z" />
    <glyph glyph-name="at" unicode="@" horiz-adv-x="1015" 
d="M517 -168q-101 0 -186 35.5t-147 97t-96.5 144t-34.5 176.5t35 177t97 145.5t146 98.5t182 36q96 0 178 -33.5t142.5 -89.5t94.5 -129.5t34 -153.5q0 -69 -18 -121t-48.5 -86t-70 -51t-82.5 -17q-66 0 -103.5 23t-56.5 52q-29 -32 -66.5 -52.5t-86.5 -20.5
q-41 0 -75.5 14.5t-60.5 41.5t-40.5 65.5t-14.5 85.5q0 55 19 104t50.5 85.5t73.5 57.5t88 21q52 0 86 -22t55 -53l12 61l153 -24l-48 -270q-4 -20 -4 -43q0 -26 18 -44t51 -18q52 0 88.5 53.5t36.5 157.5q0 72 -30 138t-84 116t-128.5 80t-162.5 30q-91 0 -167 -32.5
t-131.5 -89t-86.5 -132t-31 -161.5q0 -87 30.5 -162t86 -130.5t133 -87.5t170.5 -32q39 0 72.5 4.5t64.5 13.5t60 22t58 30l20 -33q-60 -37 -127 -57.5t-148 -20.5zM479 196q19 0 36 7.5t31 21.5q17 17 27.5 42.5t10.5 54.5q0 38 -23 60.5t-57 22.5q-20 0 -37.5 -7.5
t-31.5 -21.5q-17 -17 -27 -41.5t-10 -53.5q0 -41 23 -63t58 -22z" />
    <glyph glyph-name="A" unicode="A" horiz-adv-x="834" 
d="M324 733h185l310 -733h-206l-55 137h-287l-55 -137h-202zM499 291l-84 212l-85 -212h169z" />
    <glyph glyph-name="A" unicode="&#x1fa;" horiz-adv-x="834" 
d="M324 733h185l310 -733h-206l-55 137h-287l-55 -137h-202zM499 291l-84 212l-85 -212h169z" />
    <glyph glyph-name="A" unicode="&#x104;" horiz-adv-x="834" 
d="M324 733h185l310 -733h-206l-55 137h-287l-55 -137h-202zM499 291l-84 212l-85 -212h169z" />
    <glyph glyph-name="A" unicode="&#x102;" horiz-adv-x="834" 
d="M324 733h185l310 -733h-206l-55 137h-287l-55 -137h-202zM499 291l-84 212l-85 -212h169z" />
    <glyph glyph-name="A" unicode="&#x100;" horiz-adv-x="834" 
d="M324 733h185l310 -733h-206l-55 137h-287l-55 -137h-202zM499 291l-84 212l-85 -212h169z" />
    <glyph glyph-name="B" unicode="B" horiz-adv-x="753" 
d="M73 728h366q68 0 116.5 -16.5t80.5 -48.5q23 -23 35.5 -52.5t12.5 -66.5v-3q0 -62 -31.5 -100.5t-78.5 -59.5q66 -23 105 -64t39 -114v-2q0 -96 -73 -148.5t-203 -52.5h-369v728zM493 505q0 65 -95 65h-136v-133h131q48 0 74 16t26 50v2zM524 229q0 31 -24.5 49.5
t-77.5 18.5h-160v-139h162q48 0 74 17.5t26 51.5v2z" />
    <glyph glyph-name="C" unicode="C" horiz-adv-x="769" 
d="M422 -14q-78 0 -146.5 28.5t-119.5 78.5t-80 119t-29 150v2q0 79 28.5 148t79.5 120t121.5 80.5t153.5 29.5q55 0 100 -10.5t82.5 -29.5t67.5 -45.5t54 -57.5l-142 -118q-33 38 -72 61.5t-92 23.5q-40 0 -73.5 -16t-57.5 -43t-37 -63.5t-13 -77.5v-2q0 -42 13 -79
t37 -64.5t57.5 -43t73.5 -15.5q58 0 96 24t73 64l142 -107q-26 -34 -57 -63t-69 -50t-85 -32.5t-106 -11.5z" />
    <glyph glyph-name="C" unicode="&#x10c;" horiz-adv-x="769" 
d="M422 -14q-78 0 -146.5 28.5t-119.5 78.5t-80 119t-29 150v2q0 79 28.5 148t79.5 120t121.5 80.5t153.5 29.5q55 0 100 -10.5t82.5 -29.5t67.5 -45.5t54 -57.5l-142 -118q-33 38 -72 61.5t-92 23.5q-40 0 -73.5 -16t-57.5 -43t-37 -63.5t-13 -77.5v-2q0 -42 13 -79
t37 -64.5t57.5 -43t73.5 -15.5q58 0 96 24t73 64l142 -107q-26 -34 -57 -63t-69 -50t-85 -32.5t-106 -11.5z" />
    <glyph glyph-name="C" unicode="&#x10a;" horiz-adv-x="769" 
d="M422 -14q-78 0 -146.5 28.5t-119.5 78.5t-80 119t-29 150v2q0 79 28.5 148t79.5 120t121.5 80.5t153.5 29.5q55 0 100 -10.5t82.5 -29.5t67.5 -45.5t54 -57.5l-142 -118q-33 38 -72 61.5t-92 23.5q-40 0 -73.5 -16t-57.5 -43t-37 -63.5t-13 -77.5v-2q0 -42 13 -79
t37 -64.5t57.5 -43t73.5 -15.5q58 0 96 24t73 64l142 -107q-26 -34 -57 -63t-69 -50t-85 -32.5t-106 -11.5z" />
    <glyph glyph-name="C" unicode="&#x106;" horiz-adv-x="769" 
d="M422 -14q-78 0 -146.5 28.5t-119.5 78.5t-80 119t-29 150v2q0 79 28.5 148t79.5 120t121.5 80.5t153.5 29.5q55 0 100 -10.5t82.5 -29.5t67.5 -45.5t54 -57.5l-142 -118q-33 38 -72 61.5t-92 23.5q-40 0 -73.5 -16t-57.5 -43t-37 -63.5t-13 -77.5v-2q0 -42 13 -79
t37 -64.5t57.5 -43t73.5 -15.5q58 0 96 24t73 64l142 -107q-26 -34 -57 -63t-69 -50t-85 -32.5t-106 -11.5z" />
    <glyph glyph-name="D" unicode="D" horiz-adv-x="808" 
d="M73 728h282q95 0 170 -27t127.5 -75t80 -114t27.5 -144v-2q0 -78 -28 -145t-80.5 -116t-128 -77t-171.5 -28h-279v728zM266 556v-384h91q46 0 84 13t65 37.5t41.5 59.5t14.5 80v2q0 45 -14.5 80.5t-41.5 60.5t-65 38t-84 13h-91z" />
    <glyph glyph-name="D" unicode="&#x110;" horiz-adv-x="808" 
d="M73 728h282q95 0 170 -27t127.5 -75t80 -114t27.5 -144v-2q0 -78 -28 -145t-80.5 -116t-128 -77t-171.5 -28h-279v728zM266 556v-384h91q46 0 84 13t65 37.5t41.5 59.5t14.5 80v2q0 45 -14.5 80.5t-41.5 60.5t-65 38t-84 13h-91z" />
    <glyph glyph-name="D" unicode="&#x10e;" horiz-adv-x="808" 
d="M73 728h282q95 0 170 -27t127.5 -75t80 -114t27.5 -144v-2q0 -78 -28 -145t-80.5 -116t-128 -77t-171.5 -28h-279v728zM266 556v-384h91q46 0 84 13t65 37.5t41.5 59.5t14.5 80v2q0 45 -14.5 80.5t-41.5 60.5t-65 38t-84 13h-91z" />
    <glyph glyph-name="E" unicode="E" horiz-adv-x="703" 
d="M73 728h578v-165h-387v-119h348v-155h-348v-124h392v-165h-583v728z" />
    <glyph glyph-name="F" unicode="F" horiz-adv-x="684" 
d="M73 728h576v-171h-383v-130h345v-163h-345v-264h-193v728z" />
    <glyph glyph-name="G" unicode="G" horiz-adv-x="811" 
d="M440 -14q-85 0 -157 28t-124.5 77.5t-82 118.5t-29.5 152v2q0 79 29.5 148t81.5 120t123.5 80.5t155.5 29.5q96 0 165.5 -27.5t127.5 -76.5l-115 -139q-40 33 -81 51.5t-98 18.5q-40 0 -75 -16t-60.5 -44t-40 -65t-14.5 -80v-2q0 -45 15 -83.5t41.5 -66t63.5 -43
t81 -15.5q76 0 124 33v91h-146v146h330v-325q-57 -48 -136 -80.5t-179 -32.5z" />
    <glyph glyph-name="G" unicode="&#x122;" horiz-adv-x="811" 
d="M440 -14q-85 0 -157 28t-124.5 77.5t-82 118.5t-29.5 152v2q0 79 29.5 148t81.5 120t123.5 80.5t155.5 29.5q96 0 165.5 -27.5t127.5 -76.5l-115 -139q-40 33 -81 51.5t-98 18.5q-40 0 -75 -16t-60.5 -44t-40 -65t-14.5 -80v-2q0 -45 15 -83.5t41.5 -66t63.5 -43
t81 -15.5q76 0 124 33v91h-146v146h330v-325q-57 -48 -136 -80.5t-179 -32.5z" />
    <glyph glyph-name="G" unicode="&#x120;" horiz-adv-x="811" 
d="M440 -14q-85 0 -157 28t-124.5 77.5t-82 118.5t-29.5 152v2q0 79 29.5 148t81.5 120t123.5 80.5t155.5 29.5q96 0 165.5 -27.5t127.5 -76.5l-115 -139q-40 33 -81 51.5t-98 18.5q-40 0 -75 -16t-60.5 -44t-40 -65t-14.5 -80v-2q0 -45 15 -83.5t41.5 -66t63.5 -43
t81 -15.5q76 0 124 33v91h-146v146h330v-325q-57 -48 -136 -80.5t-179 -32.5z" />
    <glyph glyph-name="G" unicode="&#x11e;" horiz-adv-x="811" 
d="M440 -14q-85 0 -157 28t-124.5 77.5t-82 118.5t-29.5 152v2q0 79 29.5 148t81.5 120t123.5 80.5t155.5 29.5q96 0 165.5 -27.5t127.5 -76.5l-115 -139q-40 33 -81 51.5t-98 18.5q-40 0 -75 -16t-60.5 -44t-40 -65t-14.5 -80v-2q0 -45 15 -83.5t41.5 -66t63.5 -43
t81 -15.5q76 0 124 33v91h-146v146h330v-325q-57 -48 -136 -80.5t-179 -32.5z" />
    <glyph glyph-name="H" unicode="H" horiz-adv-x="799" 
d="M73 728h193v-276h267v276h193v-728h-193v280h-267v-280h-193v728z" />
    <glyph glyph-name="I" unicode="I" horiz-adv-x="350" 
d="M78 728h194v-728h-194v728z" />
    <glyph glyph-name="J" unicode="J" horiz-adv-x="595" 
d="M262 -12q-93 0 -153.5 34.5t-98.5 85.5l124 121q28 -33 55.5 -51t62.5 -18q40 0 63 26t23 80v462h193v-465q0 -68 -17.5 -117.5t-53.5 -85.5q-35 -35 -85.5 -53.5t-112.5 -18.5z" />
    <glyph glyph-name="K" unicode="K" horiz-adv-x="767" 
d="M73 728h193v-300l259 300h231l-280 -312l290 -416h-232l-192 278l-76 -82v-196h-193v728z" />
    <glyph glyph-name="K" unicode="&#x136;" horiz-adv-x="767" 
d="M73 728h193v-300l259 300h231l-280 -312l290 -416h-232l-192 278l-76 -82v-196h-193v728z" />
    <glyph glyph-name="L" unicode="L" horiz-adv-x="650" 
d="M73 728h193v-557h355v-171h-548v728z" />
    <glyph glyph-name="L" unicode="&#x13f;" horiz-adv-x="650" 
d="M73 728h193v-557h355v-171h-548v728z" />
    <glyph glyph-name="L" unicode="&#x13d;" horiz-adv-x="650" 
d="M73 728h193v-557h355v-171h-548v728z" />
    <glyph glyph-name="L" unicode="&#x13b;" horiz-adv-x="650" 
d="M73 728h193v-557h355v-171h-548v728z" />
    <glyph glyph-name="L" unicode="&#x139;" horiz-adv-x="650" 
d="M73 728h193v-557h355v-171h-548v728z" />
    <glyph glyph-name="M" unicode="M" horiz-adv-x="911" 
d="M73 728h205l177 -287l178 287h205v-728h-193v430l-190 -291h-4l-188 289v-428h-190v728z" />
    <glyph glyph-name="N" unicode="N" horiz-adv-x="825" 
d="M73 728h180l308 -397v397h191v-728h-168l-320 412v-412h-191v728z" />
    <glyph glyph-name="O" unicode="O" horiz-adv-x="876" 
d="M437 -14q-84 0 -155.5 29.5t-123.5 80.5t-81.5 119.5t-29.5 146.5v2q0 78 29.5 147t82 120.5t124.5 81t156 29.5t155.5 -29.5t123.5 -80.5t81.5 -119.5t29.5 -146.5v-2q0 -78 -29.5 -147t-82 -120.5t-124.5 -81t-156 -29.5zM439 161q43 0 78.5 16t60.5 43.5t38.5 64
t13.5 77.5v2q0 41 -14 78t-39.5 64.5t-61 44t-78.5 16.5t-78 -16t-60 -43.5t-39 -64t-14 -77.5v-2q0 -41 14 -78t39.5 -64.5t61 -44t78.5 -16.5z" />
    <glyph glyph-name="O" unicode="&#x1fe;" horiz-adv-x="876" 
d="M437 -14q-84 0 -155.5 29.5t-123.5 80.5t-81.5 119.5t-29.5 146.5v2q0 78 29.5 147t82 120.5t124.5 81t156 29.5t155.5 -29.5t123.5 -80.5t81.5 -119.5t29.5 -146.5v-2q0 -78 -29.5 -147t-82 -120.5t-124.5 -81t-156 -29.5zM439 161q43 0 78.5 16t60.5 43.5t38.5 64
t13.5 77.5v2q0 41 -14 78t-39.5 64.5t-61 44t-78.5 16.5t-78 -16t-60 -43.5t-39 -64t-14 -77.5v-2q0 -41 14 -78t39.5 -64.5t61 -44t78.5 -16.5z" />
    <glyph glyph-name="O" unicode="&#x150;" horiz-adv-x="876" 
d="M437 -14q-84 0 -155.5 29.5t-123.5 80.5t-81.5 119.5t-29.5 146.5v2q0 78 29.5 147t82 120.5t124.5 81t156 29.5t155.5 -29.5t123.5 -80.5t81.5 -119.5t29.5 -146.5v-2q0 -78 -29.5 -147t-82 -120.5t-124.5 -81t-156 -29.5zM439 161q43 0 78.5 16t60.5 43.5t38.5 64
t13.5 77.5v2q0 41 -14 78t-39.5 64.5t-61 44t-78.5 16.5t-78 -16t-60 -43.5t-39 -64t-14 -77.5v-2q0 -41 14 -78t39.5 -64.5t61 -44t78.5 -16.5z" />
    <glyph glyph-name="O" unicode="&#x14e;" horiz-adv-x="876" 
d="M437 -14q-84 0 -155.5 29.5t-123.5 80.5t-81.5 119.5t-29.5 146.5v2q0 78 29.5 147t82 120.5t124.5 81t156 29.5t155.5 -29.5t123.5 -80.5t81.5 -119.5t29.5 -146.5v-2q0 -78 -29.5 -147t-82 -120.5t-124.5 -81t-156 -29.5zM439 161q43 0 78.5 16t60.5 43.5t38.5 64
t13.5 77.5v2q0 41 -14 78t-39.5 64.5t-61 44t-78.5 16.5t-78 -16t-60 -43.5t-39 -64t-14 -77.5v-2q0 -41 14 -78t39.5 -64.5t61 -44t78.5 -16.5z" />
    <glyph glyph-name="O" unicode="&#x14c;" horiz-adv-x="876" 
d="M437 -14q-84 0 -155.5 29.5t-123.5 80.5t-81.5 119.5t-29.5 146.5v2q0 78 29.5 147t82 120.5t124.5 81t156 29.5t155.5 -29.5t123.5 -80.5t81.5 -119.5t29.5 -146.5v-2q0 -78 -29.5 -147t-82 -120.5t-124.5 -81t-156 -29.5zM439 161q43 0 78.5 16t60.5 43.5t38.5 64
t13.5 77.5v2q0 41 -14 78t-39.5 64.5t-61 44t-78.5 16.5t-78 -16t-60 -43.5t-39 -64t-14 -77.5v-2q0 -41 14 -78t39.5 -64.5t61 -44t78.5 -16.5z" />
    <glyph glyph-name="P" unicode="P" horiz-adv-x="707" 
d="M73 728h310q68 0 123 -17.5t93.5 -50.5t59.5 -80t21 -107v-2q0 -64 -23.5 -113t-64.5 -82t-98 -49.5t-123 -16.5h-105v-210h-193v728zM369 365q55 0 86.5 27t31.5 71v2q0 49 -32 73.5t-88 24.5h-101v-198h103z" />
    <glyph glyph-name="Q" unicode="Q" horiz-adv-x="876" 
d="M738 -22l-81 72q-47 -31 -102 -47.5t-118 -16.5q-84 0 -155.5 29.5t-123.5 80.5t-81.5 119.5t-29.5 146.5v2q0 78 29.5 147t82 120.5t124.5 81t156 29.5t155.5 -29.5t123.5 -80.5t81.5 -119.5t29.5 -146.5v-2q0 -58 -16.5 -111t-47.5 -98l75 -63zM439 158q42 0 77 15
l-103 89l101 114l104 -93q6 18 9.5 37.5t3.5 40.5v2q0 41 -14 78t-39.5 65t-61.5 44.5t-79 16.5t-78 -16.5t-60 -44t-39 -64.5t-14 -78v-2q0 -41 14 -78t39.5 -65t61 -44.5t78.5 -16.5z" />
    <glyph glyph-name="R" unicode="R" horiz-adv-x="757" 
d="M73 728h342q81 0 138 -20t94 -58q64 -62 64 -168v-3q0 -85 -41 -140t-110 -84l175 -255h-224l-148 223h-97v-223h-193v728zM406 377q53 0 82 24.5t29 65.5v2q0 45 -30 68t-83 23h-138v-183h140z" />
    <glyph glyph-name="R" unicode="&#x158;" horiz-adv-x="757" 
d="M73 728h342q81 0 138 -20t94 -58q64 -62 64 -168v-3q0 -85 -41 -140t-110 -84l175 -255h-224l-148 223h-97v-223h-193v728zM406 377q53 0 82 24.5t29 65.5v2q0 45 -30 68t-83 23h-138v-183h140z" />
    <glyph glyph-name="R" unicode="&#x156;" horiz-adv-x="757" 
d="M73 728h342q81 0 138 -20t94 -58q64 -62 64 -168v-3q0 -85 -41 -140t-110 -84l175 -255h-224l-148 223h-97v-223h-193v728zM406 377q53 0 82 24.5t29 65.5v2q0 45 -30 68t-83 23h-138v-183h140z" />
    <glyph glyph-name="R" unicode="&#x154;" horiz-adv-x="757" 
d="M73 728h342q81 0 138 -20t94 -58q64 -62 64 -168v-3q0 -85 -41 -140t-110 -84l175 -255h-224l-148 223h-97v-223h-193v728zM406 377q53 0 82 24.5t29 65.5v2q0 45 -30 68t-83 23h-138v-183h140z" />
    <glyph glyph-name="S" unicode="S" horiz-adv-x="684" 
d="M354 -12q-95 0 -181.5 29.5t-153.5 89.5l109 130q54 -42 111.5 -64.5t120.5 -22.5q43 0 65.5 14t22.5 40v2q0 12 -5.5 22t-19.5 18.5t-39 17t-64 17.5q-58 13 -107 29t-85 41.5t-56 63t-20 93.5v2q0 50 19.5 92.5t55.5 73t87 47.5t115 17q90 0 162 -24.5t131 -71.5
l-97 -138q-50 35 -101.5 53.5t-99.5 18.5q-38 0 -57.5 -14.5t-19.5 -35.5v-2q0 -14 5.5 -24t20.5 -18.5t41 -16.5t66 -18q61 -14 110 -31.5t83 -44t52 -62.5t18 -87v-2q0 -56 -21 -99.5t-59 -73.5t-91.5 -45.5t-117.5 -15.5z" />
    <glyph glyph-name="S" unicode="&#x218;" horiz-adv-x="684" 
d="M354 -12q-95 0 -181.5 29.5t-153.5 89.5l109 130q54 -42 111.5 -64.5t120.5 -22.5q43 0 65.5 14t22.5 40v2q0 12 -5.5 22t-19.5 18.5t-39 17t-64 17.5q-58 13 -107 29t-85 41.5t-56 63t-20 93.5v2q0 50 19.5 92.5t55.5 73t87 47.5t115 17q90 0 162 -24.5t131 -71.5
l-97 -138q-50 35 -101.5 53.5t-99.5 18.5q-38 0 -57.5 -14.5t-19.5 -35.5v-2q0 -14 5.5 -24t20.5 -18.5t41 -16.5t66 -18q61 -14 110 -31.5t83 -44t52 -62.5t18 -87v-2q0 -56 -21 -99.5t-59 -73.5t-91.5 -45.5t-117.5 -15.5z" />
    <glyph glyph-name="S" unicode="&#x15e;" horiz-adv-x="684" 
d="M354 -12q-95 0 -181.5 29.5t-153.5 89.5l109 130q54 -42 111.5 -64.5t120.5 -22.5q43 0 65.5 14t22.5 40v2q0 12 -5.5 22t-19.5 18.5t-39 17t-64 17.5q-58 13 -107 29t-85 41.5t-56 63t-20 93.5v2q0 50 19.5 92.5t55.5 73t87 47.5t115 17q90 0 162 -24.5t131 -71.5
l-97 -138q-50 35 -101.5 53.5t-99.5 18.5q-38 0 -57.5 -14.5t-19.5 -35.5v-2q0 -14 5.5 -24t20.5 -18.5t41 -16.5t66 -18q61 -14 110 -31.5t83 -44t52 -62.5t18 -87v-2q0 -56 -21 -99.5t-59 -73.5t-91.5 -45.5t-117.5 -15.5z" />
    <glyph glyph-name="S" unicode="&#x15a;" horiz-adv-x="684" 
d="M354 -12q-95 0 -181.5 29.5t-153.5 89.5l109 130q54 -42 111.5 -64.5t120.5 -22.5q43 0 65.5 14t22.5 40v2q0 12 -5.5 22t-19.5 18.5t-39 17t-64 17.5q-58 13 -107 29t-85 41.5t-56 63t-20 93.5v2q0 50 19.5 92.5t55.5 73t87 47.5t115 17q90 0 162 -24.5t131 -71.5
l-97 -138q-50 35 -101.5 53.5t-99.5 18.5q-38 0 -57.5 -14.5t-19.5 -35.5v-2q0 -14 5.5 -24t20.5 -18.5t41 -16.5t66 -18q61 -14 110 -31.5t83 -44t52 -62.5t18 -87v-2q0 -56 -21 -99.5t-59 -73.5t-91.5 -45.5t-117.5 -15.5z" />
    <glyph glyph-name="T" unicode="T" horiz-adv-x="692" 
d="M249 557h-218v171h630v-171h-218v-557h-194v557z" />
    <glyph glyph-name="T" unicode="&#x21a;" horiz-adv-x="692" 
d="M249 557h-218v171h630v-171h-218v-557h-194v557z" />
    <glyph glyph-name="T" unicode="&#x164;" horiz-adv-x="692" 
d="M249 557h-218v171h630v-171h-218v-557h-194v557z" />
    <glyph glyph-name="T" unicode="&#x162;" horiz-adv-x="692" 
d="M249 557h-218v171h630v-171h-218v-557h-194v557z" />
    <glyph glyph-name="U" unicode="U" horiz-adv-x="796" 
d="M396 -13q-77 0 -138 20t-104.5 61t-66.5 103.5t-23 146.5v410h195v-406q0 -81 37.5 -120.5t101.5 -39.5t101.5 38t37.5 116v412h195v-405q0 -87 -24 -150.5t-67.5 -104.5t-106 -61t-138.5 -20z" />
    <glyph glyph-name="U" unicode="&#x172;" horiz-adv-x="796" 
d="M396 -13q-77 0 -138 20t-104.5 61t-66.5 103.5t-23 146.5v410h195v-406q0 -81 37.5 -120.5t101.5 -39.5t101.5 38t37.5 116v412h195v-405q0 -87 -24 -150.5t-67.5 -104.5t-106 -61t-138.5 -20z" />
    <glyph glyph-name="U" unicode="&#x170;" horiz-adv-x="796" 
d="M396 -13q-77 0 -138 20t-104.5 61t-66.5 103.5t-23 146.5v410h195v-406q0 -81 37.5 -120.5t101.5 -39.5t101.5 38t37.5 116v412h195v-405q0 -87 -24 -150.5t-67.5 -104.5t-106 -61t-138.5 -20z" />
    <glyph glyph-name="U" unicode="&#x16e;" horiz-adv-x="796" 
d="M396 -13q-77 0 -138 20t-104.5 61t-66.5 103.5t-23 146.5v410h195v-406q0 -81 37.5 -120.5t101.5 -39.5t101.5 38t37.5 116v412h195v-405q0 -87 -24 -150.5t-67.5 -104.5t-106 -61t-138.5 -20z" />
    <glyph glyph-name="U" unicode="&#x16c;" horiz-adv-x="796" 
d="M396 -13q-77 0 -138 20t-104.5 61t-66.5 103.5t-23 146.5v410h195v-406q0 -81 37.5 -120.5t101.5 -39.5t101.5 38t37.5 116v412h195v-405q0 -87 -24 -150.5t-67.5 -104.5t-106 -61t-138.5 -20z" />
    <glyph glyph-name="U" unicode="&#x16a;" horiz-adv-x="796" 
d="M396 -13q-77 0 -138 20t-104.5 61t-66.5 103.5t-23 146.5v410h195v-406q0 -81 37.5 -120.5t101.5 -39.5t101.5 38t37.5 116v412h195v-405q0 -87 -24 -150.5t-67.5 -104.5t-106 -61t-138.5 -20z" />
    <glyph glyph-name="V" unicode="V" horiz-adv-x="796" 
d="M14 728h215l171 -471l171 471h211l-295 -733h-178z" />
    <glyph glyph-name="W" unicode="W" horiz-adv-x="1171" 
d="M23 728h205l131 -436l145 438h167l145 -438l131 436h201l-244 -733h-169l-150 430l-149 -430h-169z" />
    <glyph glyph-name="W" unicode="&#x1e84;" horiz-adv-x="1171" 
d="M23 728h205l131 -436l145 438h167l145 -438l131 436h201l-244 -733h-169l-150 430l-149 -430h-169z" />
    <glyph glyph-name="W" unicode="&#x1e82;" horiz-adv-x="1171" 
d="M23 728h205l131 -436l145 438h167l145 -438l131 436h201l-244 -733h-169l-150 430l-149 -430h-169z" />
    <glyph glyph-name="W" unicode="&#x1e80;" horiz-adv-x="1171" 
d="M23 728h205l131 -436l145 438h167l145 -438l131 436h201l-244 -733h-169l-150 430l-149 -430h-169z" />
    <glyph glyph-name="W" unicode="&#x174;" horiz-adv-x="1171" 
d="M23 728h205l131 -436l145 438h167l145 -438l131 436h201l-244 -733h-169l-150 430l-149 -430h-169z" />
    <glyph glyph-name="X" unicode="X" horiz-adv-x="769" 
d="M739 728l-240 -355l251 -373h-223l-144 226l-146 -226h-217l250 370l-240 358h223l133 -212l136 212h217z" />
    <glyph glyph-name="Y" unicode="Y" horiz-adv-x="758" 
d="M283 275l-278 453h221l154 -271l157 271h217l-278 -449v-279h-193v275z" />
    <glyph glyph-name="Y" unicode="&#x1ef2;" horiz-adv-x="758" 
d="M283 275l-278 453h221l154 -271l157 271h217l-278 -449v-279h-193v275z" />
    <glyph glyph-name="Y" unicode="&#x176;" horiz-adv-x="758" 
d="M283 275l-278 453h221l154 -271l157 271h217l-278 -449v-279h-193v275z" />
    <glyph glyph-name="Z" unicode="Z" horiz-adv-x="736" 
d="M51 141l372 423h-360v164h623v-141l-372 -423h372v-164h-635v141z" />
    <glyph glyph-name="Z" unicode="&#x17b;" horiz-adv-x="736" 
d="M51 141l372 423h-360v164h623v-141l-372 -423h372v-164h-635v141z" />
    <glyph glyph-name="Z" unicode="&#x179;" horiz-adv-x="736" 
d="M51 141l372 423h-360v164h623v-141l-372 -423h372v-164h-635v141z" />
    <glyph glyph-name="bracketleft" unicode="[" horiz-adv-x="485" 
d="M77 728h354v-132h-183v-599h183v-132h-354v863z" />
    <glyph glyph-name="backslash" unicode="\" horiz-adv-x="563" 
d="M-19 830h155l461 -963h-155z" />
    <glyph glyph-name="bracketright" unicode="]" horiz-adv-x="485" 
d="M54 -3h183v599h-183v132h355v-863h-355v132z" />
    <glyph glyph-name="underscore" unicode="_" horiz-adv-x="632" 
d="M2 -46h628v-120h-628v120z" />
    <glyph glyph-name="grave" unicode="`" 
d="M101 744l173 59l109 -190h-133z" />
    <glyph glyph-name="a" unicode="a" horiz-adv-x="630" 
d="M221 -12q-40 0 -74.5 11.5t-60 33.5t-40 54t-14.5 74v2q0 44 16 77.5t45 55.5t69.5 33t90.5 11q40 0 75 -6.5t61 -15.5v9q0 94 -114 94q-45 0 -81 -8t-74 -23l-41 136q48 20 100.5 31.5t125.5 11.5q74 0 125 -17t84 -50q32 -32 46 -76t14 -103v-323h-186v59
q-29 -32 -69.5 -51.5t-97.5 -19.5zM287 108q46 0 75 26t29 68v26q-17 8 -38 12.5t-44 4.5q-45 0 -70 -19.5t-25 -52.5v-2q0 -29 20.5 -46t52.5 -17z" />
    <glyph glyph-name="a" unicode="&#x1fb;" horiz-adv-x="630" 
d="M221 -12q-40 0 -74.5 11.5t-60 33.5t-40 54t-14.5 74v2q0 44 16 77.5t45 55.5t69.5 33t90.5 11q40 0 75 -6.5t61 -15.5v9q0 94 -114 94q-45 0 -81 -8t-74 -23l-41 136q48 20 100.5 31.5t125.5 11.5q74 0 125 -17t84 -50q32 -32 46 -76t14 -103v-323h-186v59
q-29 -32 -69.5 -51.5t-97.5 -19.5zM287 108q46 0 75 26t29 68v26q-17 8 -38 12.5t-44 4.5q-45 0 -70 -19.5t-25 -52.5v-2q0 -29 20.5 -46t52.5 -17z" />
    <glyph glyph-name="a" unicode="&#x105;" horiz-adv-x="630" 
d="M221 -12q-40 0 -74.5 11.5t-60 33.5t-40 54t-14.5 74v2q0 44 16 77.5t45 55.5t69.5 33t90.5 11q40 0 75 -6.5t61 -15.5v9q0 94 -114 94q-45 0 -81 -8t-74 -23l-41 136q48 20 100.5 31.5t125.5 11.5q74 0 125 -17t84 -50q32 -32 46 -76t14 -103v-323h-186v59
q-29 -32 -69.5 -51.5t-97.5 -19.5zM287 108q46 0 75 26t29 68v26q-17 8 -38 12.5t-44 4.5q-45 0 -70 -19.5t-25 -52.5v-2q0 -29 20.5 -46t52.5 -17z" />
    <glyph glyph-name="a" unicode="&#x103;" horiz-adv-x="630" 
d="M221 -12q-40 0 -74.5 11.5t-60 33.5t-40 54t-14.5 74v2q0 44 16 77.5t45 55.5t69.5 33t90.5 11q40 0 75 -6.5t61 -15.5v9q0 94 -114 94q-45 0 -81 -8t-74 -23l-41 136q48 20 100.5 31.5t125.5 11.5q74 0 125 -17t84 -50q32 -32 46 -76t14 -103v-323h-186v59
q-29 -32 -69.5 -51.5t-97.5 -19.5zM287 108q46 0 75 26t29 68v26q-17 8 -38 12.5t-44 4.5q-45 0 -70 -19.5t-25 -52.5v-2q0 -29 20.5 -46t52.5 -17z" />
    <glyph glyph-name="a" unicode="&#x101;" horiz-adv-x="630" 
d="M221 -12q-40 0 -74.5 11.5t-60 33.5t-40 54t-14.5 74v2q0 44 16 77.5t45 55.5t69.5 33t90.5 11q40 0 75 -6.5t61 -15.5v9q0 94 -114 94q-45 0 -81 -8t-74 -23l-41 136q48 20 100.5 31.5t125.5 11.5q74 0 125 -17t84 -50q32 -32 46 -76t14 -103v-323h-186v59
q-29 -32 -69.5 -51.5t-97.5 -19.5zM287 108q46 0 75 26t29 68v26q-17 8 -38 12.5t-44 4.5q-45 0 -70 -19.5t-25 -52.5v-2q0 -29 20.5 -46t52.5 -17z" />
    <glyph glyph-name="b" unicode="b" horiz-adv-x="710" 
d="M422 -12q-32 0 -57.5 6.5t-46.5 18t-37.5 26t-30.5 30.5v-69h-189v759h189v-273q28 36 68.5 61.5t102.5 25.5q50 0 95 -20t79.5 -57.5t55 -91t20.5 -121.5v-2q0 -69 -20 -123.5t-54.5 -92t-79.5 -57.5t-95 -20zM366 147q24 0 46 9.5t38 27t25.5 42t9.5 54.5v2
q0 29 -9.5 53.5t-25.5 42t-38 27.5t-46 10q-25 0 -46.5 -10t-37.5 -27.5t-25.5 -42t-9.5 -53.5v-2q0 -29 9.5 -53.5t25.5 -42t37.5 -27.5t46.5 -10z" />
    <glyph glyph-name="c" unicode="c" horiz-adv-x="600" 
d="M331 -13q-64 0 -118 23t-93 63t-61 92.5t-22 112.5v2q0 60 22 113t61.5 93t95 63.5t121.5 23.5q85 0 142 -32.5t94 -86.5l-126 -101q-22 28 -47 44t-62 16q-26 0 -47 -10.5t-36.5 -28t-24 -41.5t-8.5 -51v-2q0 -28 8.5 -52.5t24 -42.5t37.5 -28t48 -10q37 0 62.5 15.5
t49.5 42.5l124 -95q-39 -56 -96.5 -89.5t-148.5 -33.5z" />
    <glyph glyph-name="c" unicode="&#x10d;" horiz-adv-x="600" 
d="M331 -13q-64 0 -118 23t-93 63t-61 92.5t-22 112.5v2q0 60 22 113t61.5 93t95 63.5t121.5 23.5q85 0 142 -32.5t94 -86.5l-126 -101q-22 28 -47 44t-62 16q-26 0 -47 -10.5t-36.5 -28t-24 -41.5t-8.5 -51v-2q0 -28 8.5 -52.5t24 -42.5t37.5 -28t48 -10q37 0 62.5 15.5
t49.5 42.5l124 -95q-39 -56 -96.5 -89.5t-148.5 -33.5z" />
    <glyph glyph-name="c" unicode="&#x10b;" horiz-adv-x="600" 
d="M331 -13q-64 0 -118 23t-93 63t-61 92.5t-22 112.5v2q0 60 22 113t61.5 93t95 63.5t121.5 23.5q85 0 142 -32.5t94 -86.5l-126 -101q-22 28 -47 44t-62 16q-26 0 -47 -10.5t-36.5 -28t-24 -41.5t-8.5 -51v-2q0 -28 8.5 -52.5t24 -42.5t37.5 -28t48 -10q37 0 62.5 15.5
t49.5 42.5l124 -95q-39 -56 -96.5 -89.5t-148.5 -33.5z" />
    <glyph glyph-name="c" unicode="&#x107;" horiz-adv-x="600" 
d="M331 -13q-64 0 -118 23t-93 63t-61 92.5t-22 112.5v2q0 60 22 113t61.5 93t95 63.5t121.5 23.5q85 0 142 -32.5t94 -86.5l-126 -101q-22 28 -47 44t-62 16q-26 0 -47 -10.5t-36.5 -28t-24 -41.5t-8.5 -51v-2q0 -28 8.5 -52.5t24 -42.5t37.5 -28t48 -10q37 0 62.5 15.5
t49.5 42.5l124 -95q-39 -56 -96.5 -89.5t-148.5 -33.5z" />
    <glyph glyph-name="d" unicode="d" horiz-adv-x="710" 
d="M289 -12q-50 0 -95 20t-79.5 57.5t-55 91.5t-20.5 122v2q0 69 20 123t54.5 91.5t79.5 57.5t95 20q32 0 57.5 -6.5t46.5 -18t38 -26t31 -30.5v267h189v-759h-189v76q-29 -36 -69 -62t-103 -26zM345 147q25 0 46.5 9.5t37.5 27t25.5 42t9.5 54.5v2q0 29 -9.5 53.5t-25.5 42
t-37.5 27.5t-46.5 10t-46.5 -9.5t-38 -27t-26 -42t-9.5 -54.5v-2q0 -30 9.5 -54.5t26 -42t38 -27t46.5 -9.5z" />
    <glyph glyph-name="e" unicode="e" horiz-adv-x="639" 
d="M337 -13q-66 0 -121 21t-94.5 59.5t-62 92t-22.5 118.5v2q0 61 21 114.5t58.5 93t89.5 62.5t114 23q72 0 125 -25t87.5 -67t51.5 -98t17 -117q0 -9 -0.5 -19.5t-1.5 -20.5h-379q12 -48 44.5 -72t80.5 -24q37 0 66.5 14t60.5 43l105 -88q-41 -51 -99.5 -81.5t-140.5 -30.5
zM422 327q-6 48 -32.5 76.5t-69.5 28.5q-42 0 -68 -28.5t-34 -76.5h204z" />
    <glyph glyph-name="e" unicode="&#x11b;" horiz-adv-x="639" 
d="M337 -13q-66 0 -121 21t-94.5 59.5t-62 92t-22.5 118.5v2q0 61 21 114.5t58.5 93t89.5 62.5t114 23q72 0 125 -25t87.5 -67t51.5 -98t17 -117q0 -9 -0.5 -19.5t-1.5 -20.5h-379q12 -48 44.5 -72t80.5 -24q37 0 66.5 14t60.5 43l105 -88q-41 -51 -99.5 -81.5t-140.5 -30.5
zM422 327q-6 48 -32.5 76.5t-69.5 28.5q-42 0 -68 -28.5t-34 -76.5h204z" />
    <glyph glyph-name="e" unicode="&#x119;" horiz-adv-x="639" 
d="M337 -13q-66 0 -121 21t-94.5 59.5t-62 92t-22.5 118.5v2q0 61 21 114.5t58.5 93t89.5 62.5t114 23q72 0 125 -25t87.5 -67t51.5 -98t17 -117q0 -9 -0.5 -19.5t-1.5 -20.5h-379q12 -48 44.5 -72t80.5 -24q37 0 66.5 14t60.5 43l105 -88q-41 -51 -99.5 -81.5t-140.5 -30.5
zM422 327q-6 48 -32.5 76.5t-69.5 28.5q-42 0 -68 -28.5t-34 -76.5h204z" />
    <glyph glyph-name="e" unicode="&#x117;" horiz-adv-x="639" 
d="M337 -13q-66 0 -121 21t-94.5 59.5t-62 92t-22.5 118.5v2q0 61 21 114.5t58.5 93t89.5 62.5t114 23q72 0 125 -25t87.5 -67t51.5 -98t17 -117q0 -9 -0.5 -19.5t-1.5 -20.5h-379q12 -48 44.5 -72t80.5 -24q37 0 66.5 14t60.5 43l105 -88q-41 -51 -99.5 -81.5t-140.5 -30.5
zM422 327q-6 48 -32.5 76.5t-69.5 28.5q-42 0 -68 -28.5t-34 -76.5h204z" />
    <glyph glyph-name="e" unicode="&#x115;" horiz-adv-x="639" 
d="M337 -13q-66 0 -121 21t-94.5 59.5t-62 92t-22.5 118.5v2q0 61 21 114.5t58.5 93t89.5 62.5t114 23q72 0 125 -25t87.5 -67t51.5 -98t17 -117q0 -9 -0.5 -19.5t-1.5 -20.5h-379q12 -48 44.5 -72t80.5 -24q37 0 66.5 14t60.5 43l105 -88q-41 -51 -99.5 -81.5t-140.5 -30.5
zM422 327q-6 48 -32.5 76.5t-69.5 28.5q-42 0 -68 -28.5t-34 -76.5h204z" />
    <glyph glyph-name="e" unicode="&#x113;" horiz-adv-x="639" 
d="M337 -13q-66 0 -121 21t-94.5 59.5t-62 92t-22.5 118.5v2q0 61 21 114.5t58.5 93t89.5 62.5t114 23q72 0 125 -25t87.5 -67t51.5 -98t17 -117q0 -9 -0.5 -19.5t-1.5 -20.5h-379q12 -48 44.5 -72t80.5 -24q37 0 66.5 14t60.5 43l105 -88q-41 -51 -99.5 -81.5t-140.5 -30.5
zM422 327q-6 48 -32.5 76.5t-69.5 28.5q-42 0 -68 -28.5t-34 -76.5h204z" />
    <glyph glyph-name="f" unicode="f" horiz-adv-x="424" 
d="M94 408h-66v150h66v17q0 96 47 144q25 25 60 36t84 11q44 0 73 -4t52 -11v-138q-17 5 -34.5 8.5t-38.5 3.5q-57 0 -57 -55v-15h129v-147h-125v-408h-190v408z" />
    <glyph glyph-name="g" unicode="g" horiz-adv-x="710" 
d="M331 -168q-78 0 -146 16t-128 47l62 128q45 -25 91.5 -38.5t103.5 -13.5q75 0 112 36t37 105v23q-31 -37 -71.5 -61.5t-102.5 -24.5q-51 0 -96.5 18t-79.5 51.5t-54 82t-20 109.5v2q0 61 20 109.5t53.5 82t78 51.5t92.5 18q64 0 105 -22.5t73 -56.5v68h189v-429
q0 -151 -72 -223q-39 -39 -99 -58.5t-148 -19.5zM344 197q53 0 86.5 31.5t33.5 81.5v2q0 49 -34 81t-86 32t-85.5 -32t-33.5 -82v-2q0 -50 33.5 -81t85.5 -31z" />
    <glyph glyph-name="g" unicode="&#x123;" horiz-adv-x="710" 
d="M331 -168q-78 0 -146 16t-128 47l62 128q45 -25 91.5 -38.5t103.5 -13.5q75 0 112 36t37 105v23q-31 -37 -71.5 -61.5t-102.5 -24.5q-51 0 -96.5 18t-79.5 51.5t-54 82t-20 109.5v2q0 61 20 109.5t53.5 82t78 51.5t92.5 18q64 0 105 -22.5t73 -56.5v68h189v-429
q0 -151 -72 -223q-39 -39 -99 -58.5t-148 -19.5zM344 197q53 0 86.5 31.5t33.5 81.5v2q0 49 -34 81t-86 32t-85.5 -32t-33.5 -82v-2q0 -50 33.5 -81t85.5 -31z" />
    <glyph glyph-name="g" unicode="&#x121;" horiz-adv-x="710" 
d="M331 -168q-78 0 -146 16t-128 47l62 128q45 -25 91.5 -38.5t103.5 -13.5q75 0 112 36t37 105v23q-31 -37 -71.5 -61.5t-102.5 -24.5q-51 0 -96.5 18t-79.5 51.5t-54 82t-20 109.5v2q0 61 20 109.5t53.5 82t78 51.5t92.5 18q64 0 105 -22.5t73 -56.5v68h189v-429
q0 -151 -72 -223q-39 -39 -99 -58.5t-148 -19.5zM344 197q53 0 86.5 31.5t33.5 81.5v2q0 49 -34 81t-86 32t-85.5 -32t-33.5 -82v-2q0 -50 33.5 -81t85.5 -31z" />
    <glyph glyph-name="g" unicode="&#x11f;" horiz-adv-x="710" 
d="M331 -168q-78 0 -146 16t-128 47l62 128q45 -25 91.5 -38.5t103.5 -13.5q75 0 112 36t37 105v23q-31 -37 -71.5 -61.5t-102.5 -24.5q-51 0 -96.5 18t-79.5 51.5t-54 82t-20 109.5v2q0 61 20 109.5t53.5 82t78 51.5t92.5 18q64 0 105 -22.5t73 -56.5v68h189v-429
q0 -151 -72 -223q-39 -39 -99 -58.5t-148 -19.5zM344 197q53 0 86.5 31.5t33.5 81.5v2q0 49 -34 81t-86 32t-85.5 -32t-33.5 -82v-2q0 -50 33.5 -81t85.5 -31z" />
    <glyph glyph-name="h" unicode="h" horiz-adv-x="665" 
d="M61 759h189v-275q27 35 67 62t100 27q91 0 141.5 -55t50.5 -152v-366h-190v306q0 48 -22.5 73.5t-60.5 25.5t-62 -25.5t-24 -73.5v-306h-189v759z" />
    <glyph glyph-name="h" unicode="&#x127;" horiz-adv-x="665" 
d="M61 759h189v-275q27 35 67 62t100 27q91 0 141.5 -55t50.5 -152v-366h-190v306q0 48 -22.5 73.5t-60.5 25.5t-62 -25.5t-24 -73.5v-306h-189v759z" />
    <glyph glyph-name="i" unicode="i" horiz-adv-x="321" 
d="M62 759h197v-144h-197v144zM66 562h189v-562h-189v562z" />
    <glyph glyph-name="i" unicode="&#x12f;" horiz-adv-x="321" 
d="M62 759h197v-144h-197v144zM66 562h189v-562h-189v562z" />
    <glyph glyph-name="i" unicode="&#x12d;" horiz-adv-x="321" 
d="M62 759h197v-144h-197v144zM66 562h189v-562h-189v562z" />
    <glyph glyph-name="i" unicode="&#x12b;" horiz-adv-x="321" 
d="M62 759h197v-144h-197v144zM66 562h189v-562h-189v562z" />
    <glyph glyph-name="j" unicode="j" horiz-adv-x="322" 
d="M62 759h197v-144h-197v144zM59 -170q-23 0 -42 2.5t-37 5.5v129q8 -1 14.5 -1.5t13.5 -0.5q28 0 43 15t15 51v531h189v-540q0 -104 -51 -148t-145 -44z" />
    <glyph glyph-name="k" unicode="k" horiz-adv-x="633" 
d="M61 759h189v-389l160 192h216l-199 -224l205 -338h-211l-119 200l-52 -60v-140h-189v759z" />
    <glyph glyph-name="k" unicode="&#x137;" horiz-adv-x="633" 
d="M61 759h189v-389l160 192h216l-199 -224l205 -338h-211l-119 200l-52 -60v-140h-189v759z" />
    <glyph glyph-name="l" unicode="l" horiz-adv-x="321" 
d="M66 759h189v-759h-189v759z" />
    <glyph glyph-name="l" unicode="&#x140;" horiz-adv-x="321" 
d="M66 759h189v-759h-189v759z" />
    <glyph glyph-name="l" unicode="&#x13e;" horiz-adv-x="321" 
d="M66 759h189v-759h-189v759z" />
    <glyph glyph-name="l" unicode="&#x13c;" horiz-adv-x="321" 
d="M66 759h189v-759h-189v759z" />
    <glyph glyph-name="l" unicode="&#x13a;" horiz-adv-x="321" 
d="M66 759h189v-759h-189v759z" />
    <glyph glyph-name="m" unicode="m" horiz-adv-x="1013" 
d="M61 562h189v-78q27 35 67.5 62t99.5 27q57 0 97.5 -23t63.5 -67q37 42 82 66t105 24q90 0 141 -53t51 -152v-368h-190v307q0 48 -21.5 73t-58.5 25t-60.5 -25t-23.5 -73v-307h-189v307q0 48 -21.5 73t-59.5 25q-37 0 -60 -25t-23 -73v-307h-189v562z" />
    <glyph glyph-name="n" unicode="n" horiz-adv-x="665" 
d="M61 562h189v-79q13 17 30 33.5t37 29t45 20t55 7.5q91 0 141.5 -55t50.5 -152v-366h-190v306q0 48 -22.5 73.5t-60.5 25.5t-62 -25.5t-24 -73.5v-306h-189v562z" />
    <glyph glyph-name="n" unicode="&#x148;" horiz-adv-x="665" 
d="M61 562h189v-79q13 17 30 33.5t37 29t45 20t55 7.5q91 0 141.5 -55t50.5 -152v-366h-190v306q0 48 -22.5 73.5t-60.5 25.5t-62 -25.5t-24 -73.5v-306h-189v562z" />
    <glyph glyph-name="n" unicode="&#x146;" horiz-adv-x="665" 
d="M61 562h189v-79q13 17 30 33.5t37 29t45 20t55 7.5q91 0 141.5 -55t50.5 -152v-366h-190v306q0 48 -22.5 73.5t-60.5 25.5t-62 -25.5t-24 -73.5v-306h-189v562z" />
    <glyph glyph-name="n" unicode="&#x144;" horiz-adv-x="665" 
d="M61 562h189v-79q13 17 30 33.5t37 29t45 20t55 7.5q91 0 141.5 -55t50.5 -152v-366h-190v306q0 48 -22.5 73.5t-60.5 25.5t-62 -25.5t-24 -73.5v-306h-189v562z" />
    <glyph glyph-name="o" unicode="o" horiz-adv-x="692" 
d="M345 -13q-67 0 -123.5 23t-97.5 62.5t-64 92.5t-23 113v2q0 60 23.5 113.5t64.5 93t98 63t124 23.5t123.5 -23t97.5 -62.5t64 -92.5t23 -113v-2q0 -60 -23.5 -113.5t-64.5 -93t-98 -63t-124 -23.5zM347 147q28 0 51 10.5t39 28.5t24.5 41.5t8.5 50.5v2q0 27 -9.5 51
t-26 42.5t-39.5 29t-50 10.5q-29 0 -51.5 -10.5t-38.5 -28.5t-24.5 -41.5t-8.5 -50.5v-2q0 -27 9.5 -51t26 -42.5t39.5 -29t50 -10.5z" />
    <glyph glyph-name="o" unicode="&#x1ff;" horiz-adv-x="692" 
d="M345 -13q-67 0 -123.5 23t-97.5 62.5t-64 92.5t-23 113v2q0 60 23.5 113.5t64.5 93t98 63t124 23.5t123.5 -23t97.5 -62.5t64 -92.5t23 -113v-2q0 -60 -23.5 -113.5t-64.5 -93t-98 -63t-124 -23.5zM347 147q28 0 51 10.5t39 28.5t24.5 41.5t8.5 50.5v2q0 27 -9.5 51
t-26 42.5t-39.5 29t-50 10.5q-29 0 -51.5 -10.5t-38.5 -28.5t-24.5 -41.5t-8.5 -50.5v-2q0 -27 9.5 -51t26 -42.5t39.5 -29t50 -10.5z" />
    <glyph glyph-name="o" unicode="&#x151;" horiz-adv-x="692" 
d="M345 -13q-67 0 -123.5 23t-97.5 62.5t-64 92.5t-23 113v2q0 60 23.5 113.5t64.5 93t98 63t124 23.5t123.5 -23t97.5 -62.5t64 -92.5t23 -113v-2q0 -60 -23.5 -113.5t-64.5 -93t-98 -63t-124 -23.5zM347 147q28 0 51 10.5t39 28.5t24.5 41.5t8.5 50.5v2q0 27 -9.5 51
t-26 42.5t-39.5 29t-50 10.5q-29 0 -51.5 -10.5t-38.5 -28.5t-24.5 -41.5t-8.5 -50.5v-2q0 -27 9.5 -51t26 -42.5t39.5 -29t50 -10.5z" />
    <glyph glyph-name="o" unicode="&#x14f;" horiz-adv-x="692" 
d="M345 -13q-67 0 -123.5 23t-97.5 62.5t-64 92.5t-23 113v2q0 60 23.5 113.5t64.5 93t98 63t124 23.5t123.5 -23t97.5 -62.5t64 -92.5t23 -113v-2q0 -60 -23.5 -113.5t-64.5 -93t-98 -63t-124 -23.5zM347 147q28 0 51 10.5t39 28.5t24.5 41.5t8.5 50.5v2q0 27 -9.5 51
t-26 42.5t-39.5 29t-50 10.5q-29 0 -51.5 -10.5t-38.5 -28.5t-24.5 -41.5t-8.5 -50.5v-2q0 -27 9.5 -51t26 -42.5t39.5 -29t50 -10.5z" />
    <glyph glyph-name="o" unicode="&#x14d;" horiz-adv-x="692" 
d="M345 -13q-67 0 -123.5 23t-97.5 62.5t-64 92.5t-23 113v2q0 60 23.5 113.5t64.5 93t98 63t124 23.5t123.5 -23t97.5 -62.5t64 -92.5t23 -113v-2q0 -60 -23.5 -113.5t-64.5 -93t-98 -63t-124 -23.5zM347 147q28 0 51 10.5t39 28.5t24.5 41.5t8.5 50.5v2q0 27 -9.5 51
t-26 42.5t-39.5 29t-50 10.5q-29 0 -51.5 -10.5t-38.5 -28.5t-24.5 -41.5t-8.5 -50.5v-2q0 -27 9.5 -51t26 -42.5t39.5 -29t50 -10.5z" />
    <glyph glyph-name="p" unicode="p" horiz-adv-x="710" 
d="M61 562h189v-76q28 36 68.5 61.5t102.5 25.5q50 0 95 -20t79.5 -57.5t55 -91t20.5 -121.5v-2q0 -69 -20 -123.5t-54.5 -92t-79.5 -57.5t-95 -20q-32 0 -57.5 6.5t-46.5 18t-37.5 26t-30.5 30.5v-235h-189v728zM366 147q24 0 46 9.5t38 27t25.5 42t9.5 54.5v2
q0 29 -9.5 53.5t-25.5 42t-38 27.5t-46 10q-25 0 -46.5 -10t-37.5 -27.5t-25.5 -42t-9.5 -53.5v-2q0 -29 9.5 -53.5t25.5 -42t37.5 -27.5t46.5 -10z" />
    <glyph glyph-name="q" unicode="q" horiz-adv-x="710" 
d="M461 76q-29 -36 -69 -62t-103 -26q-50 0 -95 20t-79.5 57.5t-55 91.5t-20.5 122v2q0 69 20 123t54.5 91.5t79.5 57.5t95 20q32 0 57.5 -6.5t46.5 -18t38 -26t31 -30.5v70h189v-728h-189v242zM345 147q25 0 46.5 9.5t37.5 27t25.5 42t9.5 54.5v2q0 29 -9.5 53.5t-25.5 42
t-37.5 27.5t-46.5 10t-46.5 -9.5t-38 -27t-26 -42t-9.5 -54.5v-2q0 -30 9.5 -54.5t26 -42t38 -27t46.5 -9.5z" />
    <glyph glyph-name="r" unicode="r" horiz-adv-x="451" 
d="M61 562h189v-114q24 58 65.5 92t112.5 31v-199h-15q-78 0 -120.5 -46t-42.5 -145v-181h-189v562z" />
    <glyph glyph-name="s" unicode="s" horiz-adv-x="540" 
d="M278 -12q-69 0 -135.5 20.5t-124.5 63.5l73 116q48 -32 97 -48.5t92 -16.5q54 0 54 32v2q0 19 -25.5 29t-70.5 23q-39 10 -74.5 23.5t-61.5 33.5t-41.5 49t-15.5 71v2q0 44 17 78.5t46.5 58t70 35.5t87.5 12q60 0 119.5 -17t107.5 -48l-66 -122q-43 25 -87 39t-76 14
q-24 0 -36 -8.5t-12 -21.5v-2q0 -18 25.5 -29t70.5 -25q39 -11 74 -24.5t61.5 -33.5t42 -48.5t15.5 -68.5v-2q0 -47 -16.5 -82t-46.5 -58t-72 -35t-92 -12z" />
    <glyph glyph-name="t" unicode="t" horiz-adv-x="452" 
d="M277 -11q-43 0 -77 9.5t-57.5 31.5t-36 56.5t-12.5 84.5v237h-67v154h67v142h189v-142h131v-154h-131v-201q0 -29 13 -42t40 -13q41 0 76 19v-149q-26 -15 -60 -24t-75 -9z" />
    <glyph glyph-name="t" unicode="&#x21b;" horiz-adv-x="452" 
d="M277 -11q-43 0 -77 9.5t-57.5 31.5t-36 56.5t-12.5 84.5v237h-67v154h67v142h189v-142h131v-154h-131v-201q0 -29 13 -42t40 -13q41 0 76 19v-149q-26 -15 -60 -24t-75 -9z" />
    <glyph glyph-name="t" unicode="&#x165;" horiz-adv-x="452" 
d="M277 -11q-43 0 -77 9.5t-57.5 31.5t-36 56.5t-12.5 84.5v237h-67v154h67v142h189v-142h131v-154h-131v-201q0 -29 13 -42t40 -13q41 0 76 19v-149q-26 -15 -60 -24t-75 -9z" />
    <glyph glyph-name="t" unicode="&#x163;" horiz-adv-x="452" 
d="M277 -11q-43 0 -77 9.5t-57.5 31.5t-36 56.5t-12.5 84.5v237h-67v154h67v142h189v-142h131v-154h-131v-201q0 -29 13 -42t40 -13q41 0 76 19v-149q-26 -15 -60 -24t-75 -9z" />
    <glyph glyph-name="u" unicode="u" horiz-adv-x="665" 
d="M248 -12q-91 0 -141.5 55t-50.5 152v367h190v-306q0 -49 22.5 -74t60.5 -25t62 25t24 74v306h189v-562h-189v78q-14 -18 -30.5 -34t-36.5 -28.5t-45 -20t-55 -7.5z" />
    <glyph glyph-name="v" unicode="v" horiz-adv-x="653" 
d="M16 562h200l111 -338l113 338h196l-223 -566h-173z" />
    <glyph glyph-name="w" unicode="w" horiz-adv-x="903" 
d="M19 562h187l77 -295l90 297h157l92 -298l79 296h183l-174 -566h-164l-95 302l-97 -302h-163z" />
    <glyph glyph-name="x" unicode="x" horiz-adv-x="620" 
d="M311 416l88 146h200l-186 -277l191 -285h-204l-92 152l-93 -152h-200l191 283l-186 279h203z" />
    <glyph glyph-name="y" unicode="y" horiz-adv-x="654" 
d="M441 562h194l-207 -554q-18 -48 -37 -82t-43.5 -55t-55.5 -31t-72 -10q-51 0 -92.5 13t-79.5 34l59 133q23 -13 44.5 -20.5t37.5 -7.5q17 0 28 5.5t21 19.5l-220 555h198l116 -348z" />
    <glyph glyph-name="y" unicode="&#x1ef3;" horiz-adv-x="654" 
d="M441 562h194l-207 -554q-18 -48 -37 -82t-43.5 -55t-55.5 -31t-72 -10q-51 0 -92.5 13t-79.5 34l59 133q23 -13 44.5 -20.5t37.5 -7.5q17 0 28 5.5t21 19.5l-220 555h198l116 -348z" />
    <glyph glyph-name="y" unicode="&#x177;" horiz-adv-x="654" 
d="M441 562h194l-207 -554q-18 -48 -37 -82t-43.5 -55t-55.5 -31t-72 -10q-51 0 -92.5 13t-79.5 34l59 133q23 -13 44.5 -20.5t37.5 -7.5q17 0 28 5.5t21 19.5l-220 555h198l116 -348z" />
    <glyph glyph-name="z" unicode="z" horiz-adv-x="594" 
d="M41 126l266 285h-256v151h504v-126l-266 -285h266v-151h-514v126z" />
    <glyph glyph-name="braceleft" unicode="{" horiz-adv-x="518" 
d="M447 -147q-77 10 -128 27t-82 42t-44 58t-13 75q0 6 0.5 16t1 21t1 21.5t0.5 17.5q0 59 -30.5 81t-91.5 22h-19v129h19q61 0 91.5 21.5t30.5 81.5q0 7 -0.5 17.5t-1 21.5t-1 21t-0.5 16q0 42 13 75t44 58t82 42t128 27l30 -114q-42 -10 -67 -20.5t-39 -24t-18.5 -31.5
t-4.5 -42q0 -14 1.5 -35.5t1.5 -38.5q0 -57 -29 -90t-85 -50q56 -16 85 -49t29 -90q0 -17 -1.5 -38.5t-1.5 -35.5q0 -24 4.5 -42t18.5 -31.5t39 -24t67 -20.5z" />
    <glyph glyph-name="bar" unicode="|" horiz-adv-x="376" 
d="M115 830h146v-963h-146v963z" />
    <glyph glyph-name="braceright" unicode="}" horiz-adv-x="518" 
d="M40 -33q42 10 67 20.5t39 24t18.5 31.5t4.5 42q0 14 -1.5 35.5t-1.5 38.5q0 57 29 90t86 49q-57 17 -86 50t-29 90q0 17 1.5 38.5t1.5 35.5q0 24 -4.5 42t-18.5 31.5t-39 24t-67 20.5l31 114q76 -10 127.5 -27t82.5 -42t44 -58t13 -75q0 -6 -0.5 -16t-1 -21t-1 -21.5
t-0.5 -17.5q0 -60 30 -81.5t91 -21.5h19v-129h-19q-61 0 -91 -22t-30 -81q0 -7 0.5 -17.5t1 -21.5t1 -21t0.5 -16q0 -42 -13 -75t-44 -58t-82.5 -42t-127.5 -27z" />
    <glyph glyph-name="exclamdown" unicode="&#xa1;" horiz-adv-x="345" 
d="M74 728h197v-175h-197v175zM64 75l59 414h99l59 -414v-75h-217v75z" />
    <glyph glyph-name="cent" unicode="&#xa2;" horiz-adv-x="607" 
d="M450 642q82 -29 128 -95l-116 -94q-11 13 -22.5 23t-25.5 18l-49 -266h1q58 9 99 59l114 -89q-39 -53 -95 -85.5t-136 -34.5v-1l-15 -83h-118l18 101q-43 15 -78.5 42t-61 62.5t-39.5 78t-14 90.5v2q0 61 21.5 113.5t60.5 91.5t93.5 62t119.5 24h1l13 73h117zM209 370
q0 -43 15.5 -75.5t44.5 -50.5l49 269h-1q-24 -3 -44 -16t-34.5 -32t-22 -43t-7.5 -50v-2z" />
    <glyph glyph-name="sterling" unicode="&#xa3;" horiz-adv-x="673" 
d="M53 117l78 29v128h-78v140h78v59q0 62 17.5 112t52.5 84q69 71 196 71q86 0 143.5 -30.5t97.5 -77.5l-123 -127q-24 29 -49 45t-57 16q-37 0 -60 -23q-25 -25 -25 -71v-58h227v-140h-227v-119h307v-155h-578v117z" />
    <glyph glyph-name="yen" unicode="&#xa5;" horiz-adv-x="740" 
d="M84 395h144l-218 333h220l141 -246l143 246h216l-220 -333h146v-122h-191v-55h191v-121h-191v-97h-190v97h-191v121h191v55h-191v122z" />
    <glyph glyph-name="dieresis" unicode="&#xa8;" 
d="M290 759h165v-146h-165v146zM73 759h165v-146h-165v146z" />
    <glyph glyph-name="copyright" unicode="&#xa9;" horiz-adv-x="871" 
d="M435 -14q-80 0 -148.5 30t-119 81t-79.5 119.5t-29 145.5v2q0 77 29.5 145.5t80.5 120.5t120 82t148 30t147.5 -30t119 -81t79.5 -119.5t29 -145.5v-2q0 -77 -29 -145.5t-80 -120.5t-120 -82t-148 -30zM435 28q71 0 132 26.5t105.5 72.5t70 107t25.5 130v2q0 69 -25 130
t-69.5 106t-105 71.5t-131.5 26.5q-72 0 -133 -26.5t-105.5 -72.5t-70 -107t-25.5 -130v-2q0 -69 25 -130t69.5 -106t105.5 -71.5t132 -26.5zM441 162q-45 0 -83.5 16t-66.5 43.5t-43.5 65t-15.5 80.5v2q0 43 15.5 80.5t43.5 65.5t66.5 44.5t85.5 16.5q62 0 101 -21.5
t66 -56.5l-79 -66q-18 21 -39 33.5t-50 12.5q-22 0 -40 -8.5t-31 -23t-20.5 -34.5t-7.5 -42v-2q0 -23 7.5 -42.5t20.5 -34t31 -23t40 -8.5q32 0 52 13.5t40 34.5l79 -60q-29 -38 -69 -62t-103 -24z" />
    <glyph glyph-name="ordfeminine" unicode="&#xaa;" horiz-adv-x="414" 
d="M156 414q-45 0 -75 24t-30 70v2q0 49 34 73t89 24q21 0 40.5 -3.5t33.5 -8.5v4q0 52 -63 52q-24 0 -44 -4.5t-41 -12.5l-23 74q27 11 55.5 17.5t68.5 6.5q41 0 69 -9.5t47 -26.5q17 -17 24.5 -42t7.5 -57v-177h-102v33q-16 -18 -38 -28.5t-53 -10.5zM192 480q25 0 41 14
t16 37v15q-9 3 -20.5 6t-25.5 3q-24 0 -37.5 -10.5t-13.5 -28.5v-2q0 -16 11 -25t29 -9zM49 360h305v-77h-305v77z" />
    <glyph glyph-name="guillemotleft" unicode="&#xab;" horiz-adv-x="668" 
d="M309 274v10l195 238l124 -62l-123 -181l123 -180l-124 -63zM37 258v42l182 222l124 -62l-122 -181l122 -180l-124 -63z" />
    <glyph glyph-name="registered" unicode="&#xae;" horiz-adv-x="391" 
d="M195 374q-38 0 -71 14.5t-57.5 39t-38.5 57.5t-14 70v1q0 37 14 70t38.5 58t57.5 39.5t71 14.5t71 -14.5t57.5 -39t38.5 -57.5t14 -70v-1q0 -37 -14 -70t-38.5 -58t-57.5 -39.5t-71 -14.5zM195 394q34 0 63.5 13t51 35t34 51.5t12.5 62.5v1q0 33 -12 62.5t-34 51.5
t-51.5 35t-63.5 13t-63 -13t-50.5 -35t-34 -52t-12.5 -63v-1q0 -33 12 -62.5t33.5 -51t51 -34.5t63.5 -13zM114 656h93q37 0 60 -16t23 -50v-1q0 -21 -11 -36.5t-29 -22.5l46 -66h-67l-37 56h-20v-56h-58v192zM204 565q27 0 27 21v1q0 8 -6.5 14.5t-20.5 5.5h-32v-42h32z
" />
    <glyph glyph-name="macron" unicode="&#xaf;" 
d="M71 736h386v-116h-386v116z" />
    <glyph glyph-name="degree" unicode="&#xb0;" horiz-adv-x="501" 
d="M250 369q-38 0 -71.5 14.5t-59.5 39.5t-41 58t-15 70v2q0 37 15.5 70.5t41 58t59.5 39t71 14.5t71 -14.5t60 -39t41.5 -58t15.5 -70.5v-2q0 -37 -15 -70t-41 -58t-60 -39.5t-72 -14.5zM250 462q19 0 35.5 7t28.5 19t18.5 28.5t6.5 34.5v2q0 37 -25.5 63.5t-63.5 26.5
t-63.5 -26.5t-25.5 -63.5v-2q0 -18 6.5 -34.5t18.5 -28.5t28.5 -19t35.5 -7z" />
    <glyph glyph-name="acute" unicode="&#xb4;" 
d="M254 803l173 -59l-149 -131h-133z" />
    <glyph glyph-name="periodcentered" unicode="&#xb7;" horiz-adv-x="304" 
d="M53 422h198v-195h-198v195z" />
    <glyph glyph-name="cedilla" unicode="&#xb8;" 
d="M120 -116l99 137h125l-73 -201z" />
    <glyph glyph-name="ordmasculine" unicode="&#xba;" horiz-adv-x="414" 
d="M206 412q-36 0 -66.5 12.5t-52.5 34t-34.5 50.5t-12.5 62v2q0 33 12.5 62.5t35 51t53.5 34t67 12.5t66.5 -12.5t52 -34t34 -50.5t12.5 -62v-2q0 -33 -12.5 -62.5t-35 -51t-53 -34t-66.5 -12.5zM57 360h300v-77h-300v77zM208 500q29 0 46.5 20.5t17.5 50.5v2
q0 30 -18.5 51t-47.5 21q-30 0 -47.5 -20.5t-17.5 -50.5v-2q0 -30 19 -51t48 -21z" />
    <glyph glyph-name="guillemotright" unicode="&#xbb;" horiz-adv-x="668" 
d="M324 97l123 181l-123 181l125 63l181 -222v-42l-181 -222zM39 97l123 181l-123 181l125 63l195 -238v-10l-195 -238z" />
    <glyph glyph-name="questiondown" unicode="&#xbf;" horiz-adv-x="571" 
d="M210 728h198v-175h-198v175zM288 -11q-57 0 -104.5 15t-81.5 43t-53 68.5t-19 91.5v2q0 49 15.5 84.5t43 61t64.5 41.5t80 27l12 66h122l26 -173l-9 -8q-92 -7 -129.5 -29t-37.5 -57v-2q0 -28 21.5 -44t60.5 -16q38 0 77 18t76 51l102 -130q-47 -48 -112 -79t-154 -31z
" />
    <glyph glyph-name="Agrave" unicode="&#xc0;" horiz-adv-x="834" 
d="M324 733h185l310 -733h-206l-55 137h-287l-55 -137h-202zM499 291l-84 212l-85 -212h169zM350 789l-151 110l178 57l115 -167h-142z" />
    <glyph glyph-name="Aacute" unicode="&#xc1;" horiz-adv-x="834" 
d="M324 733h185l310 -733h-206l-55 137h-287l-55 -137h-202zM499 291l-84 212l-85 -212h169zM457 956l178 -57l-151 -110h-142z" />
    <glyph glyph-name="Acircumflex" unicode="&#xc2;" horiz-adv-x="834" 
d="M324 733h185l310 -733h-206l-55 137h-287l-55 -137h-202zM499 291l-84 212l-85 -212h169zM332 941h170l129 -155h-133l-82 56l-82 -56h-131z" />
    <glyph glyph-name="Atilde" unicode="&#xc3;" horiz-adv-x="834" 
d="M324 733h185l310 -733h-206l-55 137h-287l-55 -137h-202zM499 291l-84 212l-85 -212h169zM515 789q-26 0 -53 7.5t-52 15.5q-20 8 -37 13t-28 5q-23 0 -34 -12t-22 -37l-92 26q17 75 46.5 113.5t83.5 38.5q26 0 53 -7.5t52 -16.5q20 -7 37 -12t28 -5q23 0 34 12t22 37
l92 -26q-17 -75 -46.5 -113.5t-83.5 -38.5z" />
    <glyph glyph-name="Adieresis" unicode="&#xc4;" horiz-adv-x="834" 
d="M324 733h185l310 -733h-206l-55 137h-287l-55 -137h-202zM499 291l-84 212l-85 -212h169zM448 931h167v-142h-167v142zM219 931h167v-142h-167v142z" />
    <glyph glyph-name="Aring" unicode="&#xc5;" horiz-adv-x="834" 
d="M305 689q-14 17 -22.5 37t-8.5 44q0 28 11 51.5t30.5 40.5t45.5 26.5t56 9.5t56 -9.5t45.5 -26.5t30.5 -40.5t11 -51.5q0 -46 -32 -81l291 -689h-206l-55 137h-287l-55 -137h-202zM499 291l-84 212l-85 -212h169zM417 705q33 0 53 19t20 46q0 28 -20 47t-53 19t-53 -19
t-20 -47q0 -27 20 -46t53 -19z" />
    <glyph glyph-name="AE" unicode="&#xc6;" horiz-adv-x="1109" 
d="M388 728h670v-165h-363v-119h324v-155h-324v-124h368v-165h-557v137h-237l-72 -137h-195zM506 291v277h-14l-144 -277h158z" />
    <glyph glyph-name="AE" unicode="&#x1fc;" horiz-adv-x="1109" 
d="M388 728h670v-165h-363v-119h324v-155h-324v-124h368v-165h-557v137h-237l-72 -137h-195zM506 291v277h-14l-144 -277h158z" />
    <glyph glyph-name="Ccedilla" unicode="&#xc7;" horiz-adv-x="769" 
d="M247 -116l82 113q-61 15 -113 48t-89.5 80.5t-58.5 107.5t-21 129v2q0 79 28.5 148t79.5 120t121.5 80.5t153.5 29.5q55 0 100 -10.5t82.5 -29.5t67.5 -45.5t54 -57.5l-142 -118q-33 38 -72 61.5t-92 23.5q-40 0 -73.5 -16t-57.5 -43t-37 -63.5t-13 -77.5v-2
q0 -42 13 -79t37 -64.5t57.5 -43t73.5 -15.5q58 0 96 24t73 64l142 -107q-24 -32 -52 -58.5t-62 -47t-75 -33.5t-92 -17l-60 -167z" />
    <glyph glyph-name="Egrave" unicode="&#xc8;" horiz-adv-x="703" 
d="M298 779l-151 110l178 57l115 -167h-142zM73 728h578v-165h-387v-119h348v-155h-348v-124h392v-165h-583v728z" />
    <glyph glyph-name="Eacute" unicode="&#xc9;" horiz-adv-x="703" 
d="M404 946l178 -57l-151 -110h-142zM73 728h578v-165h-387v-119h348v-155h-348v-124h392v-165h-583v728z" />
    <glyph glyph-name="Ecircumflex" unicode="&#xca;" horiz-adv-x="703" 
d="M73 728h578v-165h-387v-119h348v-155h-348v-124h392v-165h-583v728zM279 934h170l129 -155h-133l-82 56l-82 -56h-131z" />
    <glyph glyph-name="Edieresis" unicode="&#xcb;" horiz-adv-x="703" 
d="M395 921h167v-142h-167v142zM166 921h167v-142h-167v142zM73 728h578v-165h-387v-119h348v-155h-348v-124h392v-165h-583v728z" />
    <glyph glyph-name="Igrave" unicode="&#xcc;" horiz-adv-x="350" 
d="M78 728h194v-728h-194v728zM109 779l-151 110l178 57l115 -167h-142z" />
    <glyph glyph-name="Iacute" unicode="&#xcd;" horiz-adv-x="350" 
d="M78 728h194v-728h-194v728zM216 946l178 -57l-151 -110h-142z" />
    <glyph glyph-name="Icircumflex" unicode="&#xce;" horiz-adv-x="350" 
d="M78 728h194v-728h-194v728zM91 934h170l129 -155h-133l-82 56l-82 -56h-131z" />
    <glyph glyph-name="Idieresis" unicode="&#xcf;" horiz-adv-x="350" 
d="M78 728h194v-728h-194v728zM207 921h167v-142h-167v142zM-22 921h167v-142h-167v142z" />
    <glyph glyph-name="Eth" unicode="&#xd0;" horiz-adv-x="855" 
d="M120 301h-82v131h82v296h282q95 0 170 -27t127.5 -75t80.5 -114t28 -144v-2q0 -78 -28 -145t-81 -116t-128.5 -77t-171.5 -28h-279v301zM309 302v-135h95q94 0 149.5 52t55.5 143v2q0 92 -55.5 144.5t-149.5 52.5h-95v-131h139v-128h-139z" />
    <glyph glyph-name="Ntilde" unicode="&#xd1;" horiz-adv-x="825" 
d="M511 779q-26 0 -53 7.5t-52 15.5q-20 8 -37 13t-28 5q-23 0 -34 -12t-22 -37l-92 26q17 75 46.5 113.5t83.5 38.5q26 0 53 -7.5t52 -16.5q20 -7 37 -12t28 -5q23 0 34 12t22 37l92 -26q-17 -75 -46.5 -113.5t-83.5 -38.5zM73 728h180l308 -397v397h191v-728h-168
l-320 412v-412h-191v728z" />
    <glyph glyph-name="Ograve" unicode="&#xd2;" horiz-adv-x="876" 
d="M371 789l-151 110l178 57l115 -167h-142zM437 -14q-84 0 -155.5 29.5t-123.5 80.5t-81.5 119.5t-29.5 146.5v2q0 78 29.5 147t82 120.5t124.5 81t156 29.5t155.5 -29.5t123.5 -80.5t81.5 -119.5t29.5 -146.5v-2q0 -78 -29.5 -147t-82 -120.5t-124.5 -81t-156 -29.5z
M439 161q43 0 78.5 16t60.5 43.5t38.5 64t13.5 77.5v2q0 41 -14 78t-39.5 64.5t-61 44t-78.5 16.5t-78 -16t-60 -43.5t-39 -64t-14 -77.5v-2q0 -41 14 -78t39.5 -64.5t61 -44t78.5 -16.5z" />
    <glyph glyph-name="Oacute" unicode="&#xd3;" horiz-adv-x="876" 
d="M478 956l178 -57l-151 -110h-142zM437 -14q-84 0 -155.5 29.5t-123.5 80.5t-81.5 119.5t-29.5 146.5v2q0 78 29.5 147t82 120.5t124.5 81t156 29.5t155.5 -29.5t123.5 -80.5t81.5 -119.5t29.5 -146.5v-2q0 -78 -29.5 -147t-82 -120.5t-124.5 -81t-156 -29.5zM439 161
q43 0 78.5 16t60.5 43.5t38.5 64t13.5 77.5v2q0 41 -14 78t-39.5 64.5t-61 44t-78.5 16.5t-78 -16t-60 -43.5t-39 -64t-14 -77.5v-2q0 -41 14 -78t39.5 -64.5t61 -44t78.5 -16.5z" />
    <glyph glyph-name="Ocircumflex" unicode="&#xd4;" horiz-adv-x="876" 
d="M437 -14q-84 0 -155.5 29.5t-123.5 80.5t-81.5 119.5t-29.5 146.5v2q0 78 29.5 147t82 120.5t124.5 81t156 29.5t155.5 -29.5t123.5 -80.5t81.5 -119.5t29.5 -146.5v-2q0 -78 -29.5 -147t-82 -120.5t-124.5 -81t-156 -29.5zM439 161q43 0 78.5 16t60.5 43.5t38.5 64
t13.5 77.5v2q0 41 -14 78t-39.5 64.5t-61 44t-78.5 16.5t-78 -16t-60 -43.5t-39 -64t-14 -77.5v-2q0 -41 14 -78t39.5 -64.5t61 -44t78.5 -16.5zM353 944h170l129 -155h-133l-82 56l-82 -56h-131z" />
    <glyph glyph-name="Otilde" unicode="&#xd5;" horiz-adv-x="876" 
d="M536 789q-26 0 -53 7.5t-52 15.5q-20 8 -37 13t-28 5q-23 0 -34 -12t-22 -37l-92 26q17 75 46.5 113.5t83.5 38.5q26 0 53 -7.5t52 -16.5q20 -7 37 -12t28 -5q23 0 34 12t22 37l92 -26q-17 -75 -46.5 -113.5t-83.5 -38.5zM437 -14q-84 0 -155.5 29.5t-123.5 80.5
t-81.5 119.5t-29.5 146.5v2q0 78 29.5 147t82 120.5t124.5 81t156 29.5t155.5 -29.5t123.5 -80.5t81.5 -119.5t29.5 -146.5v-2q0 -78 -29.5 -147t-82 -120.5t-124.5 -81t-156 -29.5zM439 161q43 0 78.5 16t60.5 43.5t38.5 64t13.5 77.5v2q0 41 -14 78t-39.5 64.5t-61 44
t-78.5 16.5t-78 -16t-60 -43.5t-39 -64t-14 -77.5v-2q0 -41 14 -78t39.5 -64.5t61 -44t78.5 -16.5z" />
    <glyph glyph-name="Odieresis" unicode="&#xd6;" horiz-adv-x="876" 
d="M469 931h167v-142h-167v142zM240 931h167v-142h-167v142zM437 -14q-84 0 -155.5 29.5t-123.5 80.5t-81.5 119.5t-29.5 146.5v2q0 78 29.5 147t82 120.5t124.5 81t156 29.5t155.5 -29.5t123.5 -80.5t81.5 -119.5t29.5 -146.5v-2q0 -78 -29.5 -147t-82 -120.5t-124.5 -81
t-156 -29.5zM439 161q43 0 78.5 16t60.5 43.5t38.5 64t13.5 77.5v2q0 41 -14 78t-39.5 64.5t-61 44t-78.5 16.5t-78 -16t-60 -43.5t-39 -64t-14 -77.5v-2q0 -41 14 -78t39.5 -64.5t61 -44t78.5 -16.5z" />
    <glyph glyph-name="Oslash" unicode="&#xd8;" horiz-adv-x="876" 
d="M837 733l-103 -118q45 -50 70 -113.5t25 -135.5v-2q0 -78 -29.5 -147t-82 -120.5t-124.5 -81t-156 -29.5q-58 0 -109.5 13.5t-95.5 39.5l-40 -44h-153l103 117q-45 50 -70 113.5t-25 136.5v2q0 78 29.5 147t82 120.5t124.5 81t156 29.5q58 0 109.5 -14t95.5 -40l41 45
h152zM242 364q0 -29 7 -56.5t20 -50.5l257 293q-20 10 -42 15.5t-47 5.5q-44 0 -79.5 -16.5t-61.5 -44.5t-40 -65t-14 -79v-2zM439 157q43 0 79 16.5t62 44.5t40 65t14 79v2q0 59 -28 107l-256 -293q39 -21 89 -21z" />
    <glyph glyph-name="Ugrave" unicode="&#xd9;" horiz-adv-x="796" 
d="M331 779l-151 110l178 57l115 -167h-142zM396 -13q-77 0 -138 20t-104.5 61t-66.5 103.5t-23 146.5v410h195v-406q0 -81 37.5 -120.5t101.5 -39.5t101.5 38t37.5 116v412h195v-405q0 -87 -24 -150.5t-67.5 -104.5t-106 -61t-138.5 -20z" />
    <glyph glyph-name="Uacute" unicode="&#xda;" horiz-adv-x="796" 
d="M438 946l178 -57l-151 -110h-142zM396 -13q-77 0 -138 20t-104.5 61t-66.5 103.5t-23 146.5v410h195v-406q0 -81 37.5 -120.5t101.5 -39.5t101.5 38t37.5 116v412h195v-405q0 -87 -24 -150.5t-67.5 -104.5t-106 -61t-138.5 -20z" />
    <glyph glyph-name="Ucircumflex" unicode="&#xdb;" horiz-adv-x="796" 
d="M396 -13q-77 0 -138 20t-104.5 61t-66.5 103.5t-23 146.5v410h195v-406q0 -81 37.5 -120.5t101.5 -39.5t101.5 38t37.5 116v412h195v-405q0 -87 -24 -150.5t-67.5 -104.5t-106 -61t-138.5 -20zM313 934h170l129 -155h-133l-82 56l-82 -56h-131z" />
    <glyph glyph-name="Udieresis" unicode="&#xdc;" horiz-adv-x="796" 
d="M429 921h167v-142h-167v142zM200 921h167v-142h-167v142zM396 -13q-77 0 -138 20t-104.5 61t-66.5 103.5t-23 146.5v410h195v-406q0 -81 37.5 -120.5t101.5 -39.5t101.5 38t37.5 116v412h195v-405q0 -87 -24 -150.5t-67.5 -104.5t-106 -61t-138.5 -20z" />
    <glyph glyph-name="Yacute" unicode="&#xdd;" horiz-adv-x="758" 
d="M283 275l-278 453h221l154 -271l157 271h217l-278 -449v-279h-193v275zM419 946l178 -57l-151 -110h-142z" />
    <glyph glyph-name="Thorn" unicode="&#xde;" horiz-adv-x="715" 
d="M73 728h193v-104h117q68 0 123 -17.5t93.5 -50t59.5 -79.5t21 -106v-2q0 -64 -23.5 -112.5t-64.5 -81t-98 -49t-123 -16.5h-105v-110h-193v728zM369 267q55 0 86.5 27t31.5 71v2q0 48 -32 73t-88 25h-101v-198h103z" />
    <glyph glyph-name="germandbls" unicode="&#xdf;" horiz-adv-x="665" 
d="M321 134q58 3 89.5 25t31.5 61v3q0 38 -33.5 60t-87.5 27v105q35 19 61 47t26 68v2q0 36 -21 57t-53 21q-38 0 -61.5 -26.5t-23.5 -75.5v-508h-188v503q0 60 18 109t53.5 83.5t87 53.5t118.5 19q60 0 107 -16.5t79.5 -45.5t50 -68t17.5 -84v-2q0 -32 -8.5 -58.5
t-22.5 -47.5t-33 -36.5t-41 -27.5q26 -9 51.5 -24t45.5 -36.5t32.5 -51t12.5 -66.5v-2q0 -52 -22.5 -91.5t-63.5 -66t-97.5 -38.5t-124.5 -8v136z" />
    <glyph glyph-name="agrave" unicode="&#xe0;" horiz-adv-x="630" 
d="M221 -12q-40 0 -74.5 11.5t-60 33.5t-40 54t-14.5 74v2q0 44 16 77.5t45 55.5t69.5 33t90.5 11q40 0 75 -6.5t61 -15.5v9q0 94 -114 94q-45 0 -81 -8t-74 -23l-41 136q48 20 100.5 31.5t125.5 11.5q74 0 125 -17t84 -50q32 -32 46 -76t14 -103v-323h-186v59
q-29 -32 -69.5 -51.5t-97.5 -19.5zM287 108q46 0 75 26t29 68v26q-17 8 -38 12.5t-44 4.5q-45 0 -70 -19.5t-25 -52.5v-2q0 -29 20.5 -46t52.5 -17zM109 747l173 59l109 -190h-133z" />
    <glyph glyph-name="aacute" unicode="&#xe1;" horiz-adv-x="630" 
d="M221 -12q-40 0 -74.5 11.5t-60 33.5t-40 54t-14.5 74v2q0 44 16 77.5t45 55.5t69.5 33t90.5 11q40 0 75 -6.5t61 -15.5v9q0 94 -114 94q-45 0 -81 -8t-74 -23l-41 136q48 20 100.5 31.5t125.5 11.5q74 0 125 -17t84 -50q32 -32 46 -76t14 -103v-323h-186v59
q-29 -32 -69.5 -51.5t-97.5 -19.5zM287 108q46 0 75 26t29 68v26q-17 8 -38 12.5t-44 4.5q-45 0 -70 -19.5t-25 -52.5v-2q0 -29 20.5 -46t52.5 -17zM355 806l173 -59l-149 -131h-133z" />
    <glyph glyph-name="acircumflex" unicode="&#xe2;" horiz-adv-x="630" 
d="M221 -12q-40 0 -74.5 11.5t-60 33.5t-40 54t-14.5 74v2q0 44 16 77.5t45 55.5t69.5 33t90.5 11q40 0 75 -6.5t61 -15.5v9q0 94 -114 94q-45 0 -81 -8t-74 -23l-41 136q48 20 100.5 31.5t125.5 11.5q74 0 125 -17t84 -50q32 -32 46 -76t14 -103v-323h-186v59
q-29 -32 -69.5 -51.5t-97.5 -19.5zM287 108q46 0 75 26t29 68v26q-17 8 -38 12.5t-44 4.5q-45 0 -70 -19.5t-25 -52.5v-2q0 -29 20.5 -46t52.5 -17zM239 785h158l132 -169h-126l-86 64l-86 -64h-124z" />
    <glyph glyph-name="atilde" unicode="&#xe3;" horiz-adv-x="630" 
d="M221 -12q-40 0 -74.5 11.5t-60 33.5t-40 54t-14.5 74v2q0 44 16 77.5t45 55.5t69.5 33t90.5 11q40 0 75 -6.5t61 -15.5v9q0 94 -114 94q-45 0 -81 -8t-74 -23l-41 136q48 20 100.5 31.5t125.5 11.5q74 0 125 -17t84 -50q32 -32 46 -76t14 -103v-323h-186v59
q-29 -32 -69.5 -51.5t-97.5 -19.5zM287 108q46 0 75 26t29 68v26q-17 8 -38 12.5t-44 4.5q-45 0 -70 -19.5t-25 -52.5v-2q0 -29 20.5 -46t52.5 -17zM411 616q-26 0 -51 7t-45 15t-36.5 13t-28.5 5q-22 0 -32.5 -12t-21.5 -37l-92 26q17 75 46 113.5t83 38.5q26 0 51 -7
t45 -15t36.5 -13t28.5 -5q22 0 32.5 12t21.5 37l92 -26q-17 -75 -46 -113.5t-83 -38.5z" />
    <glyph glyph-name="adieresis" unicode="&#xe4;" horiz-adv-x="630" 
d="M221 -12q-40 0 -74.5 11.5t-60 33.5t-40 54t-14.5 74v2q0 44 16 77.5t45 55.5t69.5 33t90.5 11q40 0 75 -6.5t61 -15.5v9q0 94 -114 94q-45 0 -81 -8t-74 -23l-41 136q48 20 100.5 31.5t125.5 11.5q74 0 125 -17t84 -50q32 -32 46 -76t14 -103v-323h-186v59
q-29 -32 -69.5 -51.5t-97.5 -19.5zM287 108q46 0 75 26t29 68v26q-17 8 -38 12.5t-44 4.5q-45 0 -70 -19.5t-25 -52.5v-2q0 -29 20.5 -46t52.5 -17zM344 762h165v-146h-165v146zM127 762h165v-146h-165v146z" />
    <glyph glyph-name="aring" unicode="&#xe5;" horiz-adv-x="630" 
d="M221 -12q-40 0 -74.5 11.5t-60 33.5t-40 54t-14.5 74v2q0 44 16 77.5t45 55.5t69.5 33t90.5 11q40 0 75 -6.5t61 -15.5v9q0 94 -114 94q-45 0 -81 -8t-74 -23l-41 136q48 20 100.5 31.5t125.5 11.5q74 0 125 -17t84 -50q32 -32 46 -76t14 -103v-323h-186v59
q-29 -32 -69.5 -51.5t-97.5 -19.5zM287 108q46 0 75 26t29 68v26q-17 8 -38 12.5t-44 4.5q-45 0 -70 -19.5t-25 -52.5v-2q0 -29 20.5 -46t52.5 -17zM318 616q-28 0 -52.5 10t-43 28t-29 41.5t-10.5 50.5t10.5 51t29 41.5t43 27.5t52.5 10t52.5 -10t43 -27.5t29 -41.5
t10.5 -51t-10.5 -50.5t-29 -41.5t-43 -28t-52.5 -10zM318 675q29 0 50 21t21 50q0 30 -21 51t-50 21t-50 -21t-21 -51q0 -29 21 -50t50 -21z" />
    <glyph glyph-name="ae" unicode="&#xe6;" horiz-adv-x="988" 
d="M241 -12q-44 0 -82 11t-66 32.5t-44.5 54t-16.5 75.5v2q0 44 16 77.5t45 55.5t69.5 33t90.5 11q40 0 75 -6.5t61 -15.5v9q0 94 -114 94q-45 0 -81 -8t-74 -23l-41 136q48 20 100.5 31.5t125.5 11.5q69 0 114.5 -16.5t75.5 -47.5q34 32 78.5 50t99.5 18q70 0 121.5 -25
t86 -67t51.5 -98t17 -117v-20q0 -10 -2 -20h-378q12 -48 44 -72t80 -24q37 0 66.5 14t61.5 43l105 -88q-41 -51 -99.5 -81.5t-141.5 -30.5q-67 0 -123 22t-95 62q-50 -37 -106.5 -60t-119.5 -23zM771 327q-6 48 -33 76.5t-69 28.5t-68.5 -28.5t-34.5 -76.5h205zM289 110
q61 0 120 48q-7 17 -12 34t-7 37q-17 7 -37.5 11.5t-43.5 4.5q-45 0 -70 -19.5t-25 -52.5v-2q0 -29 21.5 -45t53.5 -16z" />
    <glyph glyph-name="ae" unicode="&#x1fd;" horiz-adv-x="988" 
d="M241 -12q-44 0 -82 11t-66 32.5t-44.5 54t-16.5 75.5v2q0 44 16 77.5t45 55.5t69.5 33t90.5 11q40 0 75 -6.5t61 -15.5v9q0 94 -114 94q-45 0 -81 -8t-74 -23l-41 136q48 20 100.5 31.5t125.5 11.5q69 0 114.5 -16.5t75.5 -47.5q34 32 78.5 50t99.5 18q70 0 121.5 -25
t86 -67t51.5 -98t17 -117v-20q0 -10 -2 -20h-378q12 -48 44 -72t80 -24q37 0 66.5 14t61.5 43l105 -88q-41 -51 -99.5 -81.5t-141.5 -30.5q-67 0 -123 22t-95 62q-50 -37 -106.5 -60t-119.5 -23zM771 327q-6 48 -33 76.5t-69 28.5t-68.5 -28.5t-34.5 -76.5h205zM289 110
q61 0 120 48q-7 17 -12 34t-7 37q-17 7 -37.5 11.5t-43.5 4.5q-45 0 -70 -19.5t-25 -52.5v-2q0 -29 21.5 -45t53.5 -16z" />
    <glyph glyph-name="ccedilla" unicode="&#xe7;" horiz-adv-x="600" 
d="M154 -116l84 117q-45 14 -82 41t-63.5 63.5t-41 80.5t-14.5 92v2q0 60 22 113t61.5 93t95 63.5t121.5 23.5q85 0 142 -32.5t94 -86.5l-126 -101q-22 28 -47 44t-62 16q-26 0 -47 -10.5t-36.5 -28t-24 -41.5t-8.5 -51v-2q0 -28 8.5 -52.5t24 -42.5t37.5 -28t48 -10
q37 0 62.5 15.5t49.5 42.5l124 -95q-35 -51 -85 -83t-125 -38l-61 -169z" />
    <glyph glyph-name="egrave" unicode="&#xe8;" horiz-adv-x="639" 
d="M337 -13q-66 0 -121 21t-94.5 59.5t-62 92t-22.5 118.5v2q0 61 21 114.5t58.5 93t89.5 62.5t114 23q72 0 125 -25t87.5 -67t51.5 -98t17 -117q0 -9 -0.5 -19.5t-1.5 -20.5h-379q12 -48 44.5 -72t80.5 -24q37 0 66.5 14t60.5 43l105 -88q-41 -51 -99.5 -81.5t-140.5 -30.5
zM422 327q-6 48 -32.5 76.5t-69.5 28.5q-42 0 -68 -28.5t-34 -76.5h204zM111 747l173 59l109 -190h-133z" />
    <glyph glyph-name="eacute" unicode="&#xe9;" horiz-adv-x="639" 
d="M357 806l173 -59l-149 -131h-133zM337 -13q-66 0 -121 21t-94.5 59.5t-62 92t-22.5 118.5v2q0 61 21 114.5t58.5 93t89.5 62.5t114 23q72 0 125 -25t87.5 -67t51.5 -98t17 -117q0 -9 -0.5 -19.5t-1.5 -20.5h-379q12 -48 44.5 -72t80.5 -24q37 0 66.5 14t60.5 43l105 -88
q-41 -51 -99.5 -81.5t-140.5 -30.5zM422 327q-6 48 -32.5 76.5t-69.5 28.5q-42 0 -68 -28.5t-34 -76.5h204z" />
    <glyph glyph-name="ecircumflex" unicode="&#xea;" horiz-adv-x="639" 
d="M242 785h158l132 -169h-126l-86 64l-86 -64h-124zM337 -13q-66 0 -121 21t-94.5 59.5t-62 92t-22.5 118.5v2q0 61 21 114.5t58.5 93t89.5 62.5t114 23q72 0 125 -25t87.5 -67t51.5 -98t17 -117q0 -9 -0.5 -19.5t-1.5 -20.5h-379q12 -48 44.5 -72t80.5 -24q37 0 66.5 14
t60.5 43l105 -88q-41 -51 -99.5 -81.5t-140.5 -30.5zM422 327q-6 48 -32.5 76.5t-69.5 28.5q-42 0 -68 -28.5t-34 -76.5h204z" />
    <glyph glyph-name="edieresis" unicode="&#xeb;" horiz-adv-x="639" 
d="M347 762h165v-146h-165v146zM130 762h165v-146h-165v146zM337 -13q-66 0 -121 21t-94.5 59.5t-62 92t-22.5 118.5v2q0 61 21 114.5t58.5 93t89.5 62.5t114 23q72 0 125 -25t87.5 -67t51.5 -98t17 -117q0 -9 -0.5 -19.5t-1.5 -20.5h-379q12 -48 44.5 -72t80.5 -24
q37 0 66.5 14t60.5 43l105 -88q-41 -51 -99.5 -81.5t-140.5 -30.5zM422 327q-6 48 -32.5 76.5t-69.5 28.5q-42 0 -68 -28.5t-34 -76.5h204z" />
    <glyph glyph-name="igrave" unicode="&#xec;" horiz-adv-x="321" 
d="M66 562h189v-562h-189v562zM-48 744l173 59l109 -190h-133z" />
    <glyph glyph-name="iacute" unicode="&#xed;" horiz-adv-x="321" 
d="M198 803l173 -59l-149 -131h-133zM66 562h189v-562h-189v562z" />
    <glyph glyph-name="icircumflex" unicode="&#xee;" horiz-adv-x="321" 
d="M82 782h158l132 -169h-126l-86 64l-86 -64h-124zM66 562h189v-562h-189v562z" />
    <glyph glyph-name="idieresis" unicode="&#xef;" horiz-adv-x="321" 
d="M187 759h165v-146h-165v146zM-30 759h165v-146h-165v146zM66 562h189v-562h-189v562z" />
    <glyph glyph-name="eth" unicode="&#xf0;" horiz-adv-x="693" 
d="M506 660q65 -70 106.5 -156t41.5 -188v-3q0 -69 -21.5 -128.5t-61.5 -103.5t-97.5 -69t-128.5 -25q-67 0 -123.5 22.5t-97.5 63t-64 95.5t-23 121v2q0 58 18.5 107.5t50.5 85.5t76.5 56t95.5 20q42 0 71.5 -10t59.5 -28q-15 23 -35.5 47.5t-44.5 48.5l-127 -29l-29 86
l74 17q-23 18 -46 35t-46 32h241q8 -6 16 -12.5t16 -13.5l118 28l28 -85zM347 147q28 0 51 10.5t39 28t24.5 41t8.5 50.5v2q0 27 -9.5 51t-26 41.5t-39.5 28t-50 10.5q-29 0 -51.5 -10t-38.5 -27.5t-24.5 -41t-8.5 -50.5v-2q0 -27 9.5 -51t26 -42t39.5 -28.5t50 -10.5z" />
    <glyph glyph-name="ntilde" unicode="&#xf1;" horiz-adv-x="665" 
d="M61 562h189v-79q13 17 30 33.5t37 29t45 20t55 7.5q91 0 141.5 -55t50.5 -152v-366h-190v306q0 48 -22.5 73.5t-60.5 25.5t-62 -25.5t-24 -73.5v-306h-189v562zM427 616q-26 0 -51 7t-45 15t-36.5 13t-28.5 5q-22 0 -32.5 -12t-21.5 -37l-92 26q17 75 46 113.5t83 38.5
q26 0 51 -7t45 -15t36.5 -13t28.5 -5q22 0 32.5 12t21.5 37l92 -26q-17 -75 -46 -113.5t-83 -38.5z" />
    <glyph glyph-name="ograve" unicode="&#xf2;" horiz-adv-x="692" 
d="M345 -13q-67 0 -123.5 23t-97.5 62.5t-64 92.5t-23 113v2q0 60 23.5 113.5t64.5 93t98 63t124 23.5t123.5 -23t97.5 -62.5t64 -92.5t23 -113v-2q0 -60 -23.5 -113.5t-64.5 -93t-98 -63t-124 -23.5zM347 147q28 0 51 10.5t39 28.5t24.5 41.5t8.5 50.5v2q0 27 -9.5 51
t-26 42.5t-39.5 29t-50 10.5q-29 0 -51.5 -10.5t-38.5 -28.5t-24.5 -41.5t-8.5 -50.5v-2q0 -27 9.5 -51t26 -42.5t39.5 -29t50 -10.5zM136 747l173 59l109 -190h-133z" />
    <glyph glyph-name="oacute" unicode="&#xf3;" horiz-adv-x="692" 
d="M383 806l173 -59l-149 -131h-133zM345 -13q-67 0 -123.5 23t-97.5 62.5t-64 92.5t-23 113v2q0 60 23.5 113.5t64.5 93t98 63t124 23.5t123.5 -23t97.5 -62.5t64 -92.5t23 -113v-2q0 -60 -23.5 -113.5t-64.5 -93t-98 -63t-124 -23.5zM347 147q28 0 51 10.5t39 28.5
t24.5 41.5t8.5 50.5v2q0 27 -9.5 51t-26 42.5t-39.5 29t-50 10.5q-29 0 -51.5 -10.5t-38.5 -28.5t-24.5 -41.5t-8.5 -50.5v-2q0 -27 9.5 -51t26 -42.5t39.5 -29t50 -10.5z" />
    <glyph glyph-name="ocircumflex" unicode="&#xf4;" horiz-adv-x="692" 
d="M267 785h158l132 -169h-126l-86 64l-86 -64h-124zM345 -13q-67 0 -123.5 23t-97.5 62.5t-64 92.5t-23 113v2q0 60 23.5 113.5t64.5 93t98 63t124 23.5t123.5 -23t97.5 -62.5t64 -92.5t23 -113v-2q0 -60 -23.5 -113.5t-64.5 -93t-98 -63t-124 -23.5zM347 147q28 0 51 10.5
t39 28.5t24.5 41.5t8.5 50.5v2q0 27 -9.5 51t-26 42.5t-39.5 29t-50 10.5q-29 0 -51.5 -10.5t-38.5 -28.5t-24.5 -41.5t-8.5 -50.5v-2q0 -27 9.5 -51t26 -42.5t39.5 -29t50 -10.5z" />
    <glyph glyph-name="otilde" unicode="&#xf5;" horiz-adv-x="692" 
d="M345 -13q-67 0 -123.5 23t-97.5 62.5t-64 92.5t-23 113v2q0 60 23.5 113.5t64.5 93t98 63t124 23.5t123.5 -23t97.5 -62.5t64 -92.5t23 -113v-2q0 -60 -23.5 -113.5t-64.5 -93t-98 -63t-124 -23.5zM347 147q28 0 51 10.5t39 28.5t24.5 41.5t8.5 50.5v2q0 27 -9.5 51
t-26 42.5t-39.5 29t-50 10.5q-29 0 -51.5 -10.5t-38.5 -28.5t-24.5 -41.5t-8.5 -50.5v-2q0 -27 9.5 -51t26 -42.5t39.5 -29t50 -10.5zM439 616q-26 0 -51 7t-45 15t-36.5 13t-28.5 5q-22 0 -32.5 -12t-21.5 -37l-92 26q17 75 46 113.5t83 38.5q26 0 51 -7t45 -15t36.5 -13
t28.5 -5q22 0 32.5 12t21.5 37l92 -26q-17 -75 -46 -113.5t-83 -38.5z" />
    <glyph glyph-name="odieresis" unicode="&#xf6;" horiz-adv-x="692" 
d="M372 762h165v-146h-165v146zM155 762h165v-146h-165v146zM345 -13q-67 0 -123.5 23t-97.5 62.5t-64 92.5t-23 113v2q0 60 23.5 113.5t64.5 93t98 63t124 23.5t123.5 -23t97.5 -62.5t64 -92.5t23 -113v-2q0 -60 -23.5 -113.5t-64.5 -93t-98 -63t-124 -23.5zM347 147
q28 0 51 10.5t39 28.5t24.5 41.5t8.5 50.5v2q0 27 -9.5 51t-26 42.5t-39.5 29t-50 10.5q-29 0 -51.5 -10.5t-38.5 -28.5t-24.5 -41.5t-8.5 -50.5v-2q0 -27 9.5 -51t26 -42.5t39.5 -29t50 -10.5z" />
    <glyph glyph-name="oslash" unicode="&#xf8;" horiz-adv-x="692" 
d="M670 567l-86 -97q34 -38 52.5 -86t18.5 -102v-2q0 -60 -23.5 -113.5t-64.5 -93t-98 -63t-124 -23.5q-44 0 -83 10t-73 28l-29 -30h-138l85 95q-33 38 -51.5 86t-18.5 102v2q0 60 23.5 113.5t64.5 93t98 63t124 23.5q44 0 82.5 -10t72.5 -28l30 32h138zM347 140
q30 0 54 11t41 30t26 44t9 53v2q0 32 -12 59l-168 -190q22 -9 50 -9zM214 280q0 -32 11 -60l170 190q-25 10 -50 10q-30 0 -54 -11t-41.5 -30t-26.5 -44t-9 -53v-2z" />
    <glyph glyph-name="ugrave" unicode="&#xf9;" horiz-adv-x="665" 
d="M248 -12q-91 0 -141.5 55t-50.5 152v367h190v-306q0 -49 22.5 -74t60.5 -25t62 25t24 74v306h189v-562h-189v78q-14 -18 -30.5 -34t-36.5 -28.5t-45 -20t-55 -7.5zM120 744l173 59l109 -190h-133z" />
    <glyph glyph-name="uacute" unicode="&#xfa;" horiz-adv-x="665" 
d="M367 803l173 -59l-149 -131h-133zM248 -12q-91 0 -141.5 55t-50.5 152v367h190v-306q0 -49 22.5 -74t60.5 -25t62 25t24 74v306h189v-562h-189v78q-14 -18 -30.5 -34t-36.5 -28.5t-45 -20t-55 -7.5z" />
    <glyph glyph-name="ucircumflex" unicode="&#xfb;" horiz-adv-x="665" 
d="M251 782h158l132 -169h-126l-86 64l-86 -64h-124zM248 -12q-91 0 -141.5 55t-50.5 152v367h190v-306q0 -49 22.5 -74t60.5 -25t62 25t24 74v306h189v-562h-189v78q-14 -18 -30.5 -34t-36.5 -28.5t-45 -20t-55 -7.5z" />
    <glyph glyph-name="udieresis" unicode="&#xfc;" horiz-adv-x="665" 
d="M356 759h165v-146h-165v146zM139 759h165v-146h-165v146zM248 -12q-91 0 -141.5 55t-50.5 152v367h190v-306q0 -49 22.5 -74t60.5 -25t62 25t24 74v306h189v-562h-189v78q-14 -18 -30.5 -34t-36.5 -28.5t-45 -20t-55 -7.5z" />
    <glyph glyph-name="yacute" unicode="&#xfd;" horiz-adv-x="654" 
d="M441 562h194l-207 -554q-18 -48 -37 -82t-43.5 -55t-55.5 -31t-72 -10q-51 0 -92.5 13t-79.5 34l59 133q23 -13 44.5 -20.5t37.5 -7.5q17 0 28 5.5t21 19.5l-220 555h198l116 -348zM366 803l173 -59l-149 -131h-133z" />
    <glyph glyph-name="thorn" unicode="&#xfe;" horiz-adv-x="710" 
d="M61 759h189v-273q28 36 68.5 61.5t102.5 25.5q50 0 95 -20t79.5 -57.5t55 -91t20.5 -121.5v-2q0 -69 -20 -123.5t-54.5 -92t-79.5 -57.5t-95 -20q-32 0 -57.5 6.5t-46.5 18t-37.5 26t-30.5 30.5v-235h-189v925zM366 147q24 0 46 9.5t38 27t25.5 42t9.5 54.5v2
q0 29 -9.5 53.5t-25.5 42t-38 27.5t-46 10q-25 0 -46.5 -10t-37.5 -27.5t-25.5 -42t-9.5 -53.5v-2q0 -29 9.5 -53.5t25.5 -42t37.5 -27.5t46.5 -10z" />
    <glyph glyph-name="ydieresis" unicode="&#xff;" horiz-adv-x="654" 
d="M441 562h194l-207 -554q-18 -48 -37 -82t-43.5 -55t-55.5 -31t-72 -10q-51 0 -92.5 13t-79.5 34l59 133q23 -13 44.5 -20.5t37.5 -7.5q17 0 28 5.5t21 19.5l-220 555h198l116 -348zM355 759h165v-146h-165v146zM138 759h165v-146h-165v146z" />
    <glyph glyph-name="dotlessi" unicode="&#x131;" horiz-adv-x="321" 
d="M66 562h189v-562h-189v562z" />
    <glyph glyph-name="Lslash" unicode="&#x141;" horiz-adv-x="693" 
d="M309 321v-150h356v-171h-548v238l-79 -34v175l79 34v315h192v-233l154 67v-175z" />
    <glyph glyph-name="lslash" unicode="&#x142;" horiz-adv-x="417" 
d="M302 344v-344h-188v256l-84 -39v172l84 38v332h188v-244l84 39v-171z" />
    <glyph glyph-name="OE" unicode="&#x152;" horiz-adv-x="1128" 
d="M453 0q-95 0 -170 27t-127.5 75t-80.5 114t-28 144v2q0 79 28 146t81 116t128.5 76.5t171.5 27.5h620v-165h-363v-119h325v-155h-325v-124h368v-165h-628zM522 169v390h-74q-45 0 -82.5 -13.5t-64 -38.5t-41 -60.5t-14.5 -80.5v-2q0 -45 14.5 -81t41 -61.5t64 -39
t82.5 -13.5h74z" />
    <glyph glyph-name="oe" unicode="&#x153;" horiz-adv-x="1066" 
d="M337 -13q-63 0 -118 23t-95.5 62.5t-63.5 92.5t-23 113v2q0 60 23.5 113.5t64.5 93t96.5 63t120.5 23.5t118 -22.5t91 -63.5q36 41 86.5 63.5t110.5 22.5q71 0 123.5 -25t87 -67t51.5 -98t17 -117v-19q0 -11 -1 -21h-379q12 -48 44.5 -72t80.5 -24q36 0 66 14t61 43
l105 -88q-41 -51 -99 -81.5t-139 -30.5q-69 0 -124 22.5t-94 63.5q-38 -40 -92 -63t-119 -23zM849 327q-6 48 -33 76.5t-69 28.5t-68.5 -28.5t-34.5 -76.5h205zM344 147q28 0 50 10.5t37.5 28.5t24 41.5t8.5 50.5v2q0 27 -9 51t-25.5 42.5t-38.5 29t-49 10.5
q-28 0 -50 -10.5t-37.5 -28.5t-24 -42t-8.5 -50v-2q0 -27 9 -51t25.5 -42.5t38.5 -29t49 -10.5z" />
    <glyph glyph-name="Scaron" unicode="&#x160;" horiz-adv-x="684" 
d="M354 -12q-95 0 -181.5 29.5t-153.5 89.5l109 130q54 -42 111.5 -64.5t120.5 -22.5q43 0 65.5 14t22.5 40v2q0 12 -5.5 22t-19.5 18.5t-39 17t-64 17.5q-58 13 -107 29t-85 41.5t-56 63t-20 93.5v2q0 50 19.5 92.5t55.5 73t87 47.5t115 17q90 0 162 -24.5t131 -71.5
l-97 -138q-50 35 -101.5 53.5t-99.5 18.5q-38 0 -57.5 -14.5t-19.5 -35.5v-2q0 -14 5.5 -24t20.5 -18.5t41 -16.5t66 -18q61 -14 110 -31.5t83 -44t52 -62.5t18 -87v-2q0 -56 -21 -99.5t-59 -73.5t-91.5 -45.5t-117.5 -15.5zM429 789h-170l-129 155h133l82 -56l82 56h131z
" />
    <glyph glyph-name="scaron" unicode="&#x161;" horiz-adv-x="540" 
d="M353 616h-158l-132 169h126l86 -64l86 64h124zM278 -12q-69 0 -135.5 20.5t-124.5 63.5l73 116q48 -32 97 -48.5t92 -16.5q54 0 54 32v2q0 19 -25.5 29t-70.5 23q-39 10 -74.5 23.5t-61.5 33.5t-41.5 49t-15.5 71v2q0 44 17 78.5t46.5 58t70 35.5t87.5 12q60 0 119.5 -17
t107.5 -48l-66 -122q-43 25 -87 39t-76 14q-24 0 -36 -8.5t-12 -21.5v-2q0 -18 25.5 -29t70.5 -25q39 -11 74 -24.5t61.5 -33.5t42 -48.5t15.5 -68.5v-2q0 -47 -16.5 -82t-46.5 -58t-72 -35t-92 -12z" />
    <glyph glyph-name="Ydieresis" unicode="&#x178;" horiz-adv-x="758" 
d="M283 275l-278 453h221l154 -271l157 271h217l-278 -449v-279h-193v275zM410 921h167v-142h-167v142zM181 921h167v-142h-167v142z" />
    <glyph glyph-name="Zcaron" unicode="&#x17d;" horiz-adv-x="736" 
d="M461 779h-170l-129 155h133l82 -56l82 56h131zM51 141l372 423h-360v164h623v-141l-372 -423h372v-164h-635v141z" />
    <glyph glyph-name="zcaron" unicode="&#x17e;" horiz-adv-x="594" 
d="M382 613h-158l-132 169h126l86 -64l86 64h124zM41 126l266 285h-256v151h504v-126l-266 -285h266v-151h-514v126z" />
    <glyph glyph-name="circumflex" unicode="&#x2c6;" 
d="M185 782h158l132 -169h-126l-86 64l-86 -64h-124z" />
    <glyph glyph-name="caron" unicode="&#x2c7;" 
d="M343 613h-158l-132 169h126l86 -64l86 64h124z" />
    <glyph glyph-name="breve" unicode="&#x2d8;" 
d="M264 610q-86 0 -140.5 45t-62.5 127h114q9 -28 29.5 -44.5t59.5 -16.5t59.5 16.5t29.5 44.5h114q-8 -82 -62.5 -127t-140.5 -45z" />
    <glyph glyph-name="dotaccent" unicode="&#x2d9;" 
d="M179 759h170v-146h-170v146z" />
    <glyph glyph-name="ring" unicode="&#x2da;" 
d="M264 613q-28 0 -52.5 10t-43 28t-29 41.5t-10.5 50.5t10.5 51t29 41.5t43 27.5t52.5 10t52.5 -10t43 -27.5t29 -41.5t10.5 -51t-10.5 -50.5t-29 -41.5t-43 -28t-52.5 -10zM264 672q29 0 50 21t21 50q0 30 -21 51t-50 21t-50 -21t-21 -51q0 -29 21 -50t50 -21z" />
    <glyph glyph-name="ogonek" unicode="&#x2db;" 
d="M388 -171q-15 -2 -29.5 -3t-28.5 -1q-74 0 -114 25.5t-40 65.5q0 25 13 48t37 46h121q-18 -18 -25.5 -33t-7.5 -28q0 -41 74 -38v-82z" />
    <glyph glyph-name="tilde" unicode="&#x2dc;" 
d="M353 613q-26 0 -51 7t-45 15t-36.5 13t-28.5 5q-22 0 -32.5 -12t-21.5 -37l-92 26q17 75 46 113.5t83 38.5q26 0 51 -7t45 -15t36.5 -13t28.5 -5q22 0 32.5 12t21.5 37l92 -26q-17 -75 -46 -113.5t-83 -38.5z" />
    <glyph glyph-name="hungarumlaut" unicode="&#x2dd;" 
d="M339 802l165 -59l-147 -130h-123zM140 803l165 -59l-146 -131h-123z" />
    <glyph glyph-name="endash" unicode="&#x2013;" horiz-adv-x="557" 
d="M48 407h461v-165h-461v165z" />
    <glyph glyph-name="emdash" unicode="&#x2014;" horiz-adv-x="942" 
d="M48 407h846v-165h-846v165z" />
    <glyph glyph-name="quoteleft" unicode="&#x2018;" horiz-adv-x="304" 
d="M49 525q0 57 14.5 96t42 63.5t66 35.5t86.5 13l16 -74q-53 -5 -79.5 -30.5t-24.5 -67.5h77v-196h-198v160z" />
    <glyph glyph-name="quoteright" unicode="&#x2019;" horiz-adv-x="304" 
d="M30 434q53 5 79.5 30.5t24.5 67.5h-77v196h198v-160q0 -57 -14.5 -96t-42 -63.5t-66 -36t-86.5 -12.5z" />
    <glyph glyph-name="quotesinglbase" unicode="&#x201a;" horiz-adv-x="304" 
d="M26 -99q53 6 79.5 31t24.5 68h-77v196h198v-161q0 -56 -14.5 -95t-42 -63.5t-66 -36.5t-86.5 -13z" />
    <glyph glyph-name="quotedblleft" unicode="&#x201c;" horiz-adv-x="575" 
d="M323 525q0 56 14 95t41 63.5t65.5 36t86.5 13.5l15 -74q-53 -5 -78 -30.5t-23 -67.5h74v-196h-195v160zM49 525q0 56 14.5 95t41 63.5t65 36t86.5 13.5l16 -74q-53 -5 -78.5 -30.5t-23.5 -67.5h75v-196h-196v160z" />
    <glyph glyph-name="quotedblright" unicode="&#x201d;" horiz-adv-x="575" 
d="M304 434q53 5 78 30.5t23 67.5h-74v196h195v-160q0 -56 -14 -95t-41 -63.5t-65.5 -36.5t-86.5 -13zM30 434q53 5 78.5 30.5t23.5 67.5h-75v196h196v-160q0 -56 -14.5 -95t-41 -63.5t-65 -36.5t-86.5 -13z" />
    <glyph glyph-name="quotedblbase" unicode="&#x201e;" horiz-adv-x="575" 
d="M300 -99q106 12 101 99h-74v196h195v-161q0 -56 -14 -94.5t-41 -63.5t-65.5 -37t-86.5 -13zM26 -99q107 12 102 99h-75v196h196v-161q0 -56 -14.5 -94.5t-41 -63.5t-65 -37t-86.5 -13z" />
    <glyph glyph-name="bullet" unicode="&#x2022;" 
d="M264 194q-35 0 -66.5 13.5t-55 36.5t-37 54.5t-13.5 66.5v2q0 35 13.5 66t37 54.5t55 37t66.5 13.5t66.5 -13.5t55 -37t37 -54.5t13.5 -66v-2q0 -35 -13.5 -66.5t-37 -54.5t-55 -36.5t-66.5 -13.5z" />
    <glyph glyph-name="ellipsis" unicode="&#x2026;" horiz-adv-x="882" 
d="M635 192h194v-192h-194v192zM344 192h194v-192h-194v192zM53 192h194v-192h-194v192z" />
    <glyph glyph-name="guilsinglleft" unicode="&#x2039;" horiz-adv-x="383" 
d="M37 258v42l182 222l124 -62l-122 -181l122 -180l-124 -63z" />
    <glyph glyph-name="guilsinglright" unicode="&#x203a;" horiz-adv-x="383" 
d="M39 97l123 181l-123 180l125 63l181 -221v-42l-181 -222z" />
    <glyph glyph-name="Euro" unicode="&#x20ac;" horiz-adv-x="725" 
d="M570 508q-24 31 -53 49.5t-71 18.5t-71.5 -20.5t-46.5 -56.5h169v-105h-192q-1 -8 -1 -14v-15v-1v-13q0 -6 1 -13h192v-105h-170q16 -38 47.5 -59.5t76.5 -21.5q41 0 69.5 19.5t56.5 52.5l122 -110q-45 -59 -106 -93.5t-148 -34.5q-62 0 -114 18t-91.5 50t-67 77.5
t-40.5 99.5h-87v107h72v25v1v15q0 7 1 15h-73v107h90q14 51 41.5 95.5t67 76.5t90 50.5t112.5 18.5q88 0 148.5 -33t102.5 -87z" />
    <glyph glyph-name="trademark" unicode="&#x2122;" horiz-adv-x="730" 
d="M354 728h91l78 -126l78 126h90v-320h-84v193l-83 -130h-4l-83 130v-193h-83v320zM118 653h-95v75h277v-75h-95v-245h-87v245z" />
    <glyph glyph-name="hcoslug" horiz-adv-x="694" 
d="M273 18q2 22 -19 22q-9 0 -14.5 -5.5t-5.5 -15.5q1 -20 21 -20q15 0 18 14h-7q-2 -7 -9 -7q-10 0 -10 12h26zM254 35q7 0 7 -12h-14q0 12 7 12zM195 78q-8 0 -8 16q0 15 8 15t8 -15q0 -16 -8 -16zM210 4q-8 0 -8 16q0 15 8 15t8 -15q0 -16 -8 -16zM210 -1q9 0 15 6t6 15
t-6 14.5t-15 5.5t-15 -5.5t-6 -14.5q0 -10 6 -15.5t15 -5.5zM546 4q-8 0 -8 16q0 15 8 15t8 -15q0 -16 -8 -16zM546 -1q9 0 15 6t6 15t-6 14.5t-15 5.5t-15 -5.5t-6 -14.5q0 -10 6 -15.5t15 -5.5zM125 74h30v7h-10v16h4q5 0 6 -8h7v23h-7q-1 -8 -6 -8h-4v18h12q5 0 7 -2.5
t4 -10.5h8v20h-51v-7h7v-41h-7v-7zM195 73q9 0 15 6t6 15t-6 14.5t-15 5.5t-15 -5.5t-6 -14.5q0 -10 6 -15.5t15 -5.5zM644 -100h-594v800h594v-800zM498 -1q22 0 24 23h-8q-2 -16 -14 -16q-16 0 -16 22t14 22q10 0 15 -16h8v22h-8l-1 -6q-7 7 -16 7q-11 0 -19 -8t-8 -22
q0 -28 29 -28zM372 80q-8 0 -8 13t8 13q7 0 7 -13t-7 -13zM276 0h23v7h-5v25h14v-25h-5v-7h23v7h-6v52l-10 -2q-4 2 -9 2q-8 0 -13.5 -4.5t-5.5 -14.5v-1h-7v-7h7v-25h-6v-7zM368 0h26v7h-8v16q4 9 7 9v-1q0 -6 6 -6q7 0 7 7q0 8 -8 8t-12 -11v10h-18v-7h6v-25h-6v-7z
M352 73h6l4 8q5 -8 14 -8t12.5 7t3.5 14q0 20 -15 20q-10 0 -13 -9v27h-18v-7h6v-52zM400 75q-7 0 -7 -7q0 -9 11 -9q12 0 18 16l13 31h5v7h-17v-7h5l-8 -20l-9 20h6v7h-25v-7h5q2 -5 6 -13l6 -11l4 -9q-2 -8 -8 -8q2 2 1 6t-6 4zM247 428q0 13 7.5 21t19.5 8q13 0 21 -10.5
t8 -27.5q0 -13 -5 -25t-13 -25q-17 17 -27.5 29.5t-10.5 29.5zM302 74h7l1 4q2 -2 5 -3.5t8 -1.5q14 0 14 13q0 6 -4 8.5t-8.5 3.5t-8 2t-3.5 4q0 4 5 4t10 -7h7v13h-6l-2 -5q-3 5 -11 5q-7 0 -10.5 -3.5t-3.5 -8.5q0 -6 3.5 -8.5t8 -4t8.5 -2.5t4 -4q0 -4 -5 -4q-6 0 -12 9
h-7v-14zM261 219q-23 0 -37.5 15.5t-14.5 38.5q0 24 16 40q14 -13 33.5 -34.5t40.5 -47.5q-15 -12 -38 -12zM274 122v-9h-7v-7h7v-20q0 -13 12 -13q11 0 14 13l-5 2q-1 -7 -5 -7t-4 5v20h13v7h-13v11zM428 306q7 -11 18 -18t25 -7q21 0 35.5 15.5t14.5 38.5t-14.5 37.5
t-35.5 14.5q-35 0 -60 -38q-2 20 -15.5 29t-33.5 8q9 15 9 34q0 13 -6 26.5t-18 24t-30 17t-41 6.5q-25 0 -45 -7t-34.5 -19t-22 -27.5t-7.5 -31.5q0 -22 7.5 -37t23.5 -32q-82 -28 -82 -91q0 -20 8.5 -37t23.5 -29.5t34.5 -19.5t42.5 -7q63 0 104 45q25 -26 43.5 -35.5
t41.5 -9.5q32 0 55 25t25 69l-7 2q-8 -13 -17.5 -21t-25.5 -8q-15 0 -29 9.5t-33 31.5q11 15 23 25t23 17zM219 74h22v7h-4v15q0 10 7 10q6 0 6 -7v-18h-4v-7h22v7h-6v19q0 14 -12 14q-9 0 -14 -11v10h-17v-7h6v-25h-6v-7zM446 33v-7h6q-2 -5 -6 -9q-3 3 -5.5 6t-6.5 7
q11 5 11 12q0 5 -3.5 8.5t-10.5 3.5q-8 0 -12.5 -4t-4.5 -10t6 -12q-13 -4 -13 -15q0 -14 18 -14q9 0 15 6q5 -6 12 -6q10 0 13 12l-5 1q-1 -5 -4 -5t-6 5q3 3 5 6t4 8h5v7h-18zM429 6q-10 0 -10 10q0 5 4 9q4 -4 7 -7.5t7 -8.5q-4 -3 -8 -3zM294 42q0 7 1.5 9.5t4.5 2.5
q2 0 3 -1q-1 -2 -1 -4q0 -5 6 -5v-5h-14v3zM425 43q0 5 5 5q6 0 6 -6t-5 -9q-6 6 -6 10zM312 342q30 20 42 34q17 -17 15 -36t-16 -44q-10 11 -19.5 22.5t-21.5 23.5zM366 18q2 22 -19 22q-8 0 -14 -6t-6 -15q0 -20 21 -20q14 0 18 14h-7q-1 -7 -9 -7q-10 0 -10 12h26z
M347 35q7 0 7 -12h-14q0 12 7 12zM124 0h29v7h-8v18h22v-18h-8v-7h29v7h-8v41h8v7h-29v-7h8v-16h-22v16h8v7h-29v-7h8v-41h-8v-7zM576 13q-7 0 -7 -7t7 -7t7 7t-7 7z" />
    <glyph glyph-name="acute.cap" 
d="M254 946l178 -57l-151 -110h-142z" />
    <glyph glyph-name="hungarumlaut.cap" 
d="M139 946l166 -57l-147 -110h-130zM343 946l166 -57l-147 -110h-130z" />
    <glyph glyph-name="caron.alt.cap" 
d="M213 832h132v-4l-67 -218h-76z" />
    <glyph glyph-name="grave.cap" 
d="M246 779l-151 110l178 57l115 -167h-142z" />
    <glyph glyph-name="circumflex.cap" 
d="M179 934h170l129 -155h-133l-82 56l-82 -56h-131z" />
    <glyph glyph-name="caron.cap" 
d="M349 779h-170l-129 155h133l82 -56l82 56h131z" />
    <glyph glyph-name="breve.cap" 
d="M264 777q-86 0 -140 39.5t-63 117.5h116q10 -23 30 -35.5t57 -12.5t57 12.5t30 35.5h116q-9 -78 -63 -117.5t-140 -39.5z" />
    <glyph glyph-name="tilde.cap" 
d="M358 779q-26 0 -53 7.5t-52 15.5q-20 8 -37 13t-28 5q-23 0 -34 -12t-22 -37l-92 26q17 75 46.5 113.5t83.5 38.5q26 0 53 -7.5t52 -16.5q20 -7 37 -12t28 -5q23 0 34 12t22 37l92 -26q-17 -75 -46.5 -113.5t-83.5 -38.5z" />
    <glyph glyph-name="macron.cap" 
d="M59 906h410v-120h-410v120z" />
    <glyph glyph-name="dieresis.cap" 
d="M295 921h167v-142h-167v142zM66 921h167v-142h-167v142z" />
    <glyph glyph-name="dotaccent.cap" 
d="M178 921h172v-142h-172v142z" />
    <glyph glyph-name="ring.cap" 
d="M264 780q-30 0 -56 9.5t-45.5 26.5t-30.5 40t-11 51t11 51t30.5 40t45.5 26.5t56 9.5t56 -9.5t45.5 -26.5t30.5 -40t11 -51t-11 -51t-30.5 -40t-45.5 -26.5t-56 -9.5zM264 841q33 0 53 19t20 47t-20 47t-53 19t-53 -19t-20 -47t20 -47t53 -19z" />
    <glyph glyph-name="commaaccent.cap" 
d="M172 -259q45 4 63.5 21.5t16.5 47.5h-70v137h163v-113q0 -80 -43 -113.5t-121 -36.5z" />
    <glyph glyph-name="cedilla.cap" 
d="M120 -116l99 137h125l-73 -201z" />
    <glyph glyph-name="ogonek.cap" 
d="M388 -171q-15 -2 -29.5 -3t-28.5 -1q-74 0 -114 25.5t-40 65.5q0 25 13 48t37 46h121q-18 -18 -25.5 -33t-7.5 -28q0 -41 74 -38v-82z" />
    </font>
</defs>
</svg>
